<svg width="929" height="335" viewBox="0 0 929 335" fill="none" xmlns="http://www.w3.org/2000/svg">
<path d="M20.6196 33.27C20.6196 36.24 19.1296 37.77 16.1196 38.22C13.6896 38.58 8.06964 38.89 5.44964 38.26C2.88964 37.63 1.30964 35.34 0.949642 31.69C0.459642 26.56 0.369644 16.3 0.819644 10.9C1.08964 7.61998 2.52964 5.45998 4.95964 4.91998C8.24964 4.19998 12.3796 4.15997 15.0796 4.73997C18.0496 5.36997 19.5796 7.56998 19.9396 10.86C20.3896 15.14 20.3496 20.13 19.8996 24.32C19.6296 26.84 19.2296 28.59 18.7296 29.67C20.0396 30.43 20.6196 31.38 20.6196 33.27V33.27ZM11.5796 13.83H9.05964C9.18964 14.95 9.18964 27.33 9.05964 28.77H11.5796C11.4496 27.33 11.4496 14.96 11.5796 13.83ZM41.9996 39.3C41.6796 42.67 39.9296 43.93 37.7696 43.93C35.6096 43.93 33.6296 42.85 33.4096 39.47C33.1796 36.37 33.0896 31.73 33.0496 26.78C32.9196 26.82 32.7797 26.82 32.5997 26.82H31.1196C31.0296 31.19 30.8896 35.32 30.6696 38.47C30.3996 41.89 28.4597 43.1 26.3497 43.1C24.2397 43.1 22.3497 42.02 22.0697 38.65C21.4397 30.5 21.4896 14.94 22.0296 6.69997C22.2496 3.23997 24.4596 2.32998 26.3996 2.32998C28.3396 2.32998 30.4496 3.31997 30.7196 6.69997C30.8996 8.85997 31.0396 12.24 31.0796 16.06C31.8396 16.02 32.5596 16.02 33.0096 16.02H33.0997C33.1397 11.93 33.2396 8.27998 33.3696 5.84998C33.5496 2.38998 35.6196 1.47998 37.6896 1.47998C39.7596 1.47998 41.9196 2.46998 42.1896 5.84998C42.8596 14.31 42.7296 31.54 42.0096 39.28L41.9996 39.3Z" fill="#294753"/>
<path d="M71.2398 12.08C71.2398 18.74 67.0598 22.12 59.2698 22.12C51.4798 22.12 47.2998 18.74 47.2998 12.08C47.2998 5.41999 51.4798 1.99999 59.2698 1.99999C67.0598 1.99999 71.2398 5.41999 71.2398 12.08V12.08ZM85.4098 41.24C85.4098 43.67 83.8298 44.62 80.4998 44.88C75.2798 45.29 65.9698 45.46 59.6698 45.06C54.8998 44.74 52.0698 44.2 51.5698 41.37C51.1698 39.12 51.2098 36.74 51.5698 35.03C52.0698 32.69 53.4098 31.65 57.5098 31.52C61.8698 31.39 67.6298 31.25 73.2998 31.3V30.04C70.0998 30.31 58.0898 30.53 55.4398 30.4C52.5198 30.27 50.9398 29.01 50.8998 27.11C50.8598 24.86 52.5198 23.47 55.4398 23.33C62.0998 23.01 73.1198 22.92 77.8498 23.29C82.5298 23.65 83.8798 24.77 84.4198 27.79C84.5998 28.78 84.6498 30.67 84.4198 32.11C83.9698 34.86 82.6698 36.29 78.1198 36.65C74.6098 36.92 65.4298 36.97 62.8698 36.87V38.08C65.7498 37.9 77.1298 37.59 80.5098 37.72C83.8398 37.85 85.4198 38.62 85.4198 41.23L85.4098 41.24ZM62.3298 12.08C62.3298 10.64 61.5198 9.51999 59.2698 9.51999C57.0198 9.51999 56.2498 10.64 56.2498 12.08C56.2498 13.52 57.0198 14.6 59.2698 14.6C61.5198 14.6 62.3298 13.52 62.3298 12.08ZM74.4298 18.02C74.0198 14.42 73.9298 9.55999 74.2998 6.09999C74.6598 2.45999 77.2698 1.23999 79.7398 1.23999C82.2098 1.23999 84.5598 2.53999 84.8698 6.09999C85.1898 9.47999 85.1898 14.78 84.7798 18.34C84.4598 20.86 82.4898 22.34 79.5198 22.34C76.5498 22.34 74.7498 20.5 74.4398 18.02H74.4298Z" fill="#294753"/>
<path d="M109.72 33.27C109.72 36.24 108.23 37.77 105.22 38.22C102.79 38.58 97.1697 38.89 94.5497 38.26C91.9897 37.63 90.4097 35.34 90.0497 31.69C89.5597 26.56 89.4697 16.3 89.9197 10.9C90.1897 7.61998 91.6297 5.45998 94.0597 4.91998C97.3497 4.19998 101.48 4.15997 104.18 4.73997C107.15 5.36997 108.68 7.56998 109.04 10.86C109.49 15.14 109.45 20.13 109 24.32C108.73 26.84 108.33 28.59 107.83 29.67C109.14 30.43 109.72 31.38 109.72 33.27V33.27ZM100.68 13.83H98.1597C98.2897 14.95 98.2897 27.33 98.1597 28.77H100.68C100.55 27.33 100.55 14.96 100.68 13.83ZM131.1 39.3C130.78 42.67 129.03 43.93 126.87 43.93C124.71 43.93 122.73 42.85 122.51 39.47C122.28 36.37 122.19 31.73 122.15 26.78C122.02 26.82 121.88 26.82 121.7 26.82H120.22C120.13 31.19 119.99 35.32 119.77 38.47C119.5 41.89 117.56 43.1 115.45 43.1C113.34 43.1 111.45 42.02 111.17 38.65C110.54 30.5 110.59 14.94 111.13 6.69997C111.35 3.23997 113.56 2.32998 115.5 2.32998C117.44 2.32998 119.55 3.31997 119.82 6.69997C120 8.85997 120.14 12.24 120.18 16.06C120.94 16.02 121.66 16.02 122.11 16.02H122.2C122.24 11.93 122.34 8.27998 122.47 5.84998C122.65 2.38998 124.72 1.47998 126.79 1.47998C128.86 1.47998 131.02 2.46998 131.29 5.84998C131.96 14.31 131.83 31.54 131.11 39.28L131.1 39.3Z" fill="#294753"/>
<path d="M160.339 12.08C160.339 18.74 156.159 22.12 148.369 22.12C140.579 22.12 136.399 18.74 136.399 12.08C136.399 5.41999 140.579 1.99999 148.369 1.99999C156.159 1.99999 160.339 5.41999 160.339 12.08V12.08ZM174.509 41.24C174.509 43.67 172.929 44.62 169.599 44.88C164.379 45.29 155.069 45.46 148.769 45.06C143.999 44.74 141.169 44.2 140.669 41.37C140.269 39.12 140.309 36.74 140.669 35.03C141.169 32.69 142.509 31.65 146.609 31.52C150.969 31.39 156.729 31.25 162.399 31.3V30.04C159.199 30.31 147.189 30.53 144.539 30.4C141.619 30.27 140.039 29.01 139.999 27.11C139.959 24.86 141.619 23.47 144.539 23.33C151.199 23.01 162.219 22.92 166.949 23.29C171.629 23.65 172.979 24.77 173.519 27.79C173.699 28.78 173.749 30.67 173.519 32.11C173.069 34.86 171.769 36.29 167.219 36.65C163.709 36.92 154.529 36.97 151.969 36.87V38.08C154.849 37.9 166.229 37.59 169.609 37.72C172.939 37.85 174.519 38.62 174.519 41.23L174.509 41.24ZM151.429 12.08C151.429 10.64 150.619 9.51999 148.369 9.51999C146.119 9.51999 145.349 10.64 145.349 12.08C145.349 13.52 146.119 14.6 148.369 14.6C150.619 14.6 151.429 13.52 151.429 12.08ZM163.529 18.02C163.119 14.42 163.029 9.55999 163.399 6.09999C163.759 2.45999 166.369 1.23999 168.839 1.23999C171.309 1.23999 173.659 2.53999 173.969 6.09999C174.289 9.47999 174.289 14.78 173.879 18.34C173.559 20.86 171.589 22.34 168.619 22.34C165.649 22.34 163.849 20.5 163.539 18.02H163.529Z" fill="#294753"/>
<path d="M179.059 35.21C179.019 32.78 180.409 31.16 183.339 30.62C186.849 29.99 200.569 29.63 203.949 30.17C206.829 30.62 208.039 32.15 208.089 34.62C208.129 37.1 206.559 39.12 203.679 39.53C200.039 40.03 187.169 40.43 183.339 39.98C180.419 39.62 179.109 37.91 179.059 35.21ZM205.199 15.1C205.199 22.93 201.009 27.2 192.779 27.2C184.549 27.2 180.359 22.92 180.359 15.1C180.359 7.28001 184.539 2.95 192.779 2.95C201.019 2.95 205.199 7.27001 205.199 15.1ZM196.069 15.1C196.069 13.03 194.899 11.59 192.779 11.59C190.659 11.59 189.539 13.03 189.539 15.1C189.539 17.17 190.659 18.56 192.779 18.56C194.899 18.56 196.069 17.16 196.069 15.1ZM209.479 37.73C208.489 30.53 208.489 12.98 209.439 6.37001C209.939 2.86001 211.909 1.51001 214.389 1.51001C216.869 1.51001 218.929 2.81001 219.289 6.37001C219.789 11.1 219.739 32.69 219.249 37.6C218.889 41.29 217.179 43.04 214.119 42.95C211.109 42.86 209.939 40.97 209.489 37.73H209.479Z" fill="#294753"/>
<path d="M260.92 18.29C258.36 24.72 252.55 33.63 246.52 38.13C244.27 39.84 241.39 39.93 239.41 38.08C237.25 36.1 237.52 33.45 239.54 31.24C244.13 26.33 249.12 20.08 251.64 14.28C248.94 14.55 245.7 14.6 242.51 14.37C239.77 14.19 237.97 12.44 237.88 9.78001C237.79 7.08001 239.55 5.10001 242.88 4.74001C246.93 4.29001 251.61 4.29001 256.42 4.87001C259.66 5.28001 261.64 7.12001 262.13 9.91001C262.58 12.34 262.35 14.63 260.91 18.28L260.92 18.29ZM265.33 37.73C264.34 30.53 264.34 12.98 265.29 6.37001C265.79 2.86001 267.95 1.51001 270.42 1.51001C272.89 1.51001 275.28 2.95001 275.55 6.51001C276.05 13.12 276 30.4 275.51 37.47C275.24 41.16 273.22 43.05 270.15 42.96C267.14 42.87 265.79 40.98 265.34 37.74L265.33 37.73Z" fill="#294753"/>
<path d="M321.71 26.7001C321.71 28.3201 321.13 30.3001 317.71 30.5701C315.6 30.7501 311.73 30.8401 307.27 30.9301C307.27 31.2001 307.27 31.5101 307.23 31.8301C307.05 34.3901 305.07 35.6501 302.01 35.6501C299.13 35.6501 297.02 34.3901 296.79 31.8301L296.7 30.9301C291.75 30.9301 287.16 30.8001 284.37 30.5701C280.95 30.3001 280.32 28.3201 280.32 26.7001C280.32 25.0801 280.95 23.1501 284.37 22.8701C290.85 22.3701 311.77 22.4201 317.71 22.8701C321.13 23.1401 321.71 25.0301 321.71 26.7001V26.7001ZM318.83 40.3301C318.83 42.2701 318.02 43.9801 314.24 44.3801C308.89 44.9601 295.88 44.8301 289.36 44.3801C286.21 44.1601 284.14 42.6301 283.69 40.3801C283.33 38.5401 283.42 37.1001 283.69 35.6101C284.1 33.2701 286.21 31.8801 289.45 31.8801C292.69 31.8801 294.94 33.0001 295.21 34.8001C295.3 35.4301 295.3 36.0601 295.26 36.6001C301.42 36.0601 309.88 36.0601 314.34 36.5101C318.03 36.8701 318.84 38.8501 318.84 40.3301H318.83ZM284.9 16.3001C284.04 12.9701 284.18 7.80008 284.99 4.96008C285.66 2.58008 287.24 1.41008 289.71 1.50008C291.87 1.59008 293.44 2.31008 293.89 4.25008C298.12 4.02008 303.97 3.98008 307.88 4.21008C308.46 2.41008 309.77 1.33008 312.25 1.33008C315.45 1.33008 316.75 3.00008 317.06 5.69008C317.47 9.15008 317.47 13.8301 316.88 17.7001C316.52 20.0801 314.99 21.5301 312.25 21.5301C310.9 21.5301 309.87 21.1701 309.05 20.5801H309.01C305.91 21.2501 293.8 21.1601 290.83 20.7601C287.68 20.3101 285.61 19.0501 284.89 16.3101L284.9 16.3001ZM294.08 11.2601C294.04 11.8401 293.99 12.4701 293.9 13.1901C295.61 13.0601 303.53 12.9701 307.22 13.1001V11.3001C303.35 11.3901 298.09 11.3901 294.08 11.2601Z" fill="#294753"/>
<path d="M323.51 20.7201C323.51 19.2401 324.36 17.3901 327.78 17.2101C334.53 16.8501 354.73 16.9901 360.67 17.2101C364.09 17.3401 364.9 19.2401 364.9 20.7201C364.9 22.2001 364.09 23.8701 360.67 24.1401C354.73 24.5901 335.16 24.6401 327.78 24.1401C324.36 23.9201 323.51 22.2101 323.51 20.7201ZM331.02 25.6701C338.17 25.4501 347.62 25.3501 353.92 25.5801C358.78 25.7601 360.49 26.8401 360.71 29.6701C360.8 30.7901 360.89 32.1001 360.71 33.6701C360.44 36.1401 359 37.1801 353.42 37.4501C349.77 37.6301 344.64 37.6801 339.2 37.5901V38.5801C343.61 38.4001 354.23 38.1301 357.51 38.2701C360.3 38.4001 361.51 39.2101 361.51 41.3701C361.51 43.6601 360.29 44.8801 357.51 45.0201C351.57 45.2401 343.88 45.2401 335.91 45.0201C331.01 44.8801 328.17 44.0301 327.59 41.3701C327.27 39.9301 327.23 37.9501 327.55 36.2001C327.91 34.3101 329.08 33.3701 333.71 33.2301C338.21 33.1001 343.43 33.0501 349.23 33.1401V32.1001C344.51 32.2301 337.53 32.3201 331.01 32.3201C328.26 32.3201 326.96 31.0201 326.87 28.9501C326.83 26.8301 328.4 25.7501 331.01 25.6601L331.02 25.6701ZM360.99 8.48008C360.99 14.2401 355.23 16.1701 344.25 16.1701C333.27 16.1701 327.56 14.2401 327.56 8.48008C327.56 2.72008 333.14 0.830078 344.25 0.830078C355.36 0.830078 360.99 2.81008 360.99 8.48008ZM349.83 8.44008C349.83 7.54008 348.84 7.32008 344.3 7.32008C339.76 7.32008 338.72 7.54008 338.72 8.44008C338.72 9.34008 339.76 9.56007 344.3 9.56007C348.84 9.56007 349.83 9.34008 349.83 8.44008Z" fill="#294753"/>
<path d="M43.9298 89.1199C43.5198 92.3599 41.6798 94.4299 38.3998 94.4299C35.1198 94.4299 33.2298 92.58 33.0398 89.35C32.8598 85.75 32.8199 82.38 32.8199 78.33C32.8199 76.71 32.4998 74.28 30.5298 74.28C29.7598 74.28 29.0398 74.77 28.4998 75.63C28.5898 79.95 28.5399 84.36 28.0499 89.13C27.7299 92.37 26.0698 94.44 22.7798 94.44C19.4898 94.44 17.8298 92.59 17.6098 89.36C17.3398 85.62 17.2498 81.94 17.2498 78.34C17.2498 76.72 16.9298 74.2899 14.9598 74.2899C14.1898 74.2899 13.5199 74.78 12.9799 75.59C13.0699 80.09 12.7999 84.99 12.4399 89.13C12.1699 92.37 10.3299 94.44 7.03985 94.44C3.74985 94.44 2.13985 92.37 1.77985 89.13C1.14985 83.28 1.19985 75.9499 1.86985 70.2299C2.27985 66.7199 4.78985 65.46 7.26985 65.46C9.51985 65.46 11.7699 66.5 12.4399 69.33C13.6999 67.26 15.9498 65.46 20.2698 65.46C23.9598 65.46 26.4399 67.4 27.5999 70.05C28.7699 67.67 31.0198 65.46 35.8298 65.46C41.0898 65.46 44.2498 69.42 44.4198 73.83C44.5498 76.93 44.5998 83.68 43.9198 89.13L43.9298 89.1199Z" fill="#294753"/>
<path d="M47.6694 79.9402C47.6694 71.1202 53.8794 65.4502 62.4694 65.4502C71.0594 65.4502 77.2694 71.1202 77.2694 79.9402C77.2694 88.7602 71.0594 94.4302 62.4694 94.4302C53.8794 94.4302 47.6694 88.7602 47.6694 79.9402ZM67.0194 79.9402C67.0194 77.1502 65.2194 74.9902 62.4794 74.9902C59.7394 74.9902 57.9394 77.1502 57.9394 79.9402C57.9394 82.7302 59.6894 84.8902 62.4794 84.8902C65.2694 84.8902 67.0194 82.7302 67.0194 79.9402Z" fill="#294753"/>
<path d="M79.9697 79.9402C79.9697 71.1202 86.1797 65.4502 94.7697 65.4502C103.36 65.4502 109.57 71.1202 109.57 79.9402C109.57 88.7602 103.36 94.4302 94.7697 94.4302C86.1797 94.4302 79.9697 88.7602 79.9697 79.9402ZM99.3197 79.9402C99.3197 77.1502 97.5197 74.9902 94.7797 74.9902C92.0397 74.9902 90.2397 77.1502 90.2397 79.9402C90.2397 82.7302 91.9897 84.8902 94.7797 84.8902C97.5697 84.8902 99.3197 82.7302 99.3197 79.9402Z" fill="#294753"/>
<path d="M140.63 89.1601C140.22 92.4001 138.79 94.4301 135.5 94.4301C132.62 94.4301 131 92.8501 130.37 90.2401C129.2 92.6701 127.08 94.4301 123.31 94.4301C116.56 94.4301 112.06 88.8101 112.06 79.9801C112.06 71.1501 116.56 65.4501 123.31 65.4501C126.06 65.4501 128.21 66.4901 129.74 67.5701C129.83 64.5101 130.01 61.7701 130.28 59.8301C130.73 56.3201 133.03 55.0601 135.5 55.0601C137.97 55.0601 140.36 56.3201 140.81 59.8301C141.67 66.4501 141.53 81.9701 140.63 89.1701V89.1601ZM129.7 82.7301L129.57 76.5201C128.85 75.7601 127.95 75.1301 126.65 75.1301C124.31 75.1301 122.65 77.1101 122.65 79.9901C122.65 82.8701 124.32 84.5801 126.65 84.5801C128.04 84.5801 128.99 83.8601 129.71 82.7401L129.7 82.7301Z" fill="#294753"/>
<path d="M186.62 89.1601C186.21 92.4001 184.78 94.4301 181.49 94.4301C178.61 94.4301 176.99 92.8501 176.36 90.2401C175.19 92.6701 173.07 94.4301 169.3 94.4301C162.55 94.4301 158.05 88.8101 158.05 79.9801C158.05 71.1501 162.55 65.4501 169.3 65.4501C172.05 65.4501 174.2 66.4901 175.73 67.5701C175.82 64.5101 176 61.7701 176.27 59.8301C176.72 56.3201 179.02 55.0601 181.49 55.0601C183.96 55.0601 186.35 56.3201 186.8 59.8301C187.66 66.4501 187.52 81.9701 186.62 89.1701V89.1601ZM175.69 82.7301L175.56 76.5201C174.84 75.7601 173.94 75.1301 172.64 75.1301C170.3 75.1301 168.64 77.1101 168.64 79.9901C168.64 82.8701 170.31 84.5801 172.64 84.5801C174.03 84.5801 174.98 83.8601 175.7 82.7401L175.69 82.7301Z" fill="#294753"/>
<path d="M196.93 65.45C199.41 65.45 202.01 66.71 202.42 70.22C203.09 75.93 202.87 83.27 202.24 89.12C201.88 92.36 200.08 94.43 196.79 94.43C193.5 94.43 191.8 92.36 191.44 89.12C190.81 83.27 190.86 75.94 191.53 70.22C191.94 66.71 194.45 65.45 196.93 65.45V65.45ZM191.76 58.79C191.76 56.09 193.7 54.29 196.89 54.29C200.08 54.29 202.02 56.09 202.02 58.79C202.02 61.49 200.09 63.29 196.89 63.29C193.69 63.29 191.76 61.49 191.76 58.79Z" fill="#294753"/>
<path d="M233.559 89.5702C233.339 92.8102 231.309 94.4302 228.029 94.4302C225.739 94.4302 223.979 93.6202 223.119 92.0402C221.729 93.4402 219.569 94.4302 216.369 94.4302C210.249 94.4302 205.979 91.4602 205.979 86.1902C205.979 80.9202 209.809 77.9102 216.369 77.9102C218.889 77.9102 220.739 78.3602 222.079 79.2102C221.859 77.0502 220.599 75.3402 217.849 75.3402C215.099 75.3402 213.709 75.7502 211.599 76.3802C207.459 77.5902 205.029 70.7602 208.719 68.2802C211.149 66.6602 215.429 65.4502 220.149 65.4502C227.439 65.4502 233.649 69.9102 233.779 77.3702C233.869 83.0402 233.779 86.3202 233.549 89.5602L233.559 89.5702ZM222.219 84.3502C220.189 82.8602 217.089 83.1402 217.089 85.7902C217.089 86.8702 217.759 87.9502 219.649 87.9502C221.269 87.9502 222.219 87.1402 222.219 85.6102V84.3502Z" fill="#294753"/>
<path d="M260.38 71.6102C259.57 74.7602 257.5 76.6902 255.03 75.7002C253.91 75.2502 253.05 74.9802 251.88 74.9802C250.62 74.9802 249.9 75.5202 249.27 76.9102C249.31 81.0502 249.09 85.3702 248.69 89.1002C248.33 92.3402 246.53 94.4102 243.24 94.4102C239.95 94.4102 238.25 92.3402 237.89 89.1002C237.26 83.2502 237.31 75.9202 237.98 70.2002C238.39 66.6902 240.9 65.4302 243.38 65.4302C245.86 65.4302 248.46 66.6902 248.87 70.2002C248.87 70.2902 248.87 70.3802 248.91 70.4702C249.72 68.4002 251.97 65.4302 256.29 65.4302C259.89 65.4302 261.37 67.7702 260.38 71.6002V71.6102Z" fill="#294753"/>
<path d="M292.32 72.2001C290.52 78.6801 282.15 95.8201 278.19 101.31C276.21 104.05 273.42 105.72 270.4 104.23C267.84 102.97 267.61 100.67 268.65 97.3901C269.1 95.9901 270.36 92.9801 271.71 90.0601C269.01 87.5901 263.61 77.2801 262.35 72.4201C261.45 69.0001 262.62 66.8901 264.92 65.9401C267.22 64.9901 269.91 65.1301 271.76 68.1501C273.6 71.1601 275.81 76.0301 277.34 80.1601C278.42 77.3301 281.57 70.5301 283.05 68.3301C284.94 65.5001 287.24 64.9501 289.58 65.8101C292.14 66.7601 293.27 68.7801 292.32 72.2001V72.2001Z" fill="#294753"/>
<path d="M335.39 89.9701C335.39 92.0801 334.22 93.9701 330.98 94.2401C322.48 94.9601 306.86 95.0101 298.81 94.3301C295.61 94.0601 294 92.4401 294 89.9701C294 87.5001 295.62 85.7901 298.81 85.6501C301.87 85.5201 305.47 85.4301 309.2 85.3401C309.16 84.3501 309.16 83.3101 309.16 82.5501L306.46 82.4201C301.65 82.1501 299.08 81.5201 298.32 78.3301C297.74 75.8501 297.82 72.1601 298.32 70.2301C298.95 67.8001 300.699 66.9401 304.299 66.7701C308.439 66.5401 316.31 66.5401 319.28 66.6801V65.0101C314.69 65.2801 305.87 65.4601 302.18 65.2801C298.85 65.1001 297.549 63.7901 297.549 61.2301C297.549 58.6701 299.299 57.6301 302.049 57.4001C308.079 56.9001 318.2 56.8201 324.32 57.3601C328.55 57.7201 330.08 58.8901 330.66 62.2701C330.89 63.6201 330.84 66.9001 330.48 68.7001C329.9 71.7101 327.91 72.6201 324.5 72.8801C320.09 73.2401 312.619 73.2401 309.609 73.1101V74.6801C312.849 74.4601 321.8 74.3701 326.71 74.6401C330.22 74.8201 331.84 75.8101 331.84 78.3801C331.84 81.1201 330.4 82.2901 326.89 82.5201C324.95 82.6501 322.61 82.7001 320.14 82.7001C320.14 83.4701 320.14 84.3701 320.1 85.3101C324.15 85.3501 327.93 85.4401 330.99 85.6701C334.23 85.9001 335.4 87.8801 335.4 89.9901L335.39 89.9701Z" fill="#294753"/>
<path d="M25.1195 126.29C22.5595 132.72 16.7495 141.63 10.7195 146.13C8.46946 147.84 5.58946 147.93 3.60946 146.08C1.44946 144.1 1.71946 141.45 3.73946 139.24C8.32946 134.33 13.3195 128.08 15.8395 122.28C13.1395 122.55 9.89946 122.6 6.70946 122.37C3.96946 122.19 2.16946 120.44 2.07946 117.78C1.98946 115.08 3.74946 113.1 7.07946 112.74C11.1295 112.29 15.8095 112.29 20.6195 112.87C23.8595 113.28 25.8395 115.12 26.3295 117.91C26.7795 120.34 26.5495 122.63 25.1095 126.28L25.1195 126.29ZM29.5295 145.73C28.5395 138.53 28.5395 120.98 29.4895 114.37C29.9895 110.86 32.1495 109.51 34.6195 109.51C37.0895 109.51 39.4795 110.95 39.7495 114.51C40.2495 121.12 40.1995 138.4 39.7095 145.47C39.4395 149.16 37.4195 151.05 34.3495 150.96C31.3395 150.87 29.9895 148.98 29.5395 145.74L29.5295 145.73Z" fill="#294753"/>
<path d="M85.9095 134.88C85.9095 136.55 84.7895 138.57 81.5495 138.71C73.9895 139.02 57.4295 139.02 49.2895 138.8C46.0895 138.71 44.5195 136.91 44.5195 134.88C44.5195 132.72 46.0895 131.33 49.2895 131.19C52.0395 131.05 55.7695 130.96 59.8195 130.92V129.93C58.3395 129.89 56.9895 129.84 55.8595 129.75C51.4095 129.44 49.6995 129.03 48.9295 126.29C48.4795 124.71 48.4795 122.15 48.9295 120.62C49.5595 118.55 51.0895 117.7 54.3295 117.56C58.4195 117.38 67.4695 117.38 69.6695 117.43V116.48C64.9495 116.61 59.1395 116.7 52.5295 116.7C49.6095 116.7 47.9895 115.49 47.9395 113.28C47.8895 110.99 49.4695 110.13 51.8095 109.95C57.2995 109.54 68.4595 109.45 75.2095 109.82C79.4795 110.04 80.8795 111.17 81.3795 114.18C81.5595 115.26 81.5095 116.79 81.2395 118.27C80.7895 120.84 78.7695 121.92 74.9895 122.01C69.0995 122.14 65.9895 122.19 60.5495 122.14V123.09C62.2595 122.95 73.5095 122.73 78.0495 122.86C80.8395 122.95 82.4595 123.67 82.4595 126.15C82.4595 128.63 80.8395 129.39 78.0495 129.61C76.1595 129.79 73.5495 129.88 70.7195 129.92C70.7195 130.24 70.7595 130.6 70.7595 130.91C74.9895 130.95 78.8595 131.04 81.5595 131.18C84.7995 131.36 85.9195 133.07 85.9195 134.87L85.9095 134.88ZM82.3095 144.38C82.5395 146.09 82.7195 148.61 82.3095 150.32C81.8595 152.3 79.6095 153.24 76.8695 153.24C74.1295 153.24 71.5595 152.29 71.3295 150.36C71.2395 149.6 71.2395 149.01 71.3295 148.11C67.0995 148.47 56.7995 148.43 52.4295 147.93C50.0895 147.66 48.1595 146.53 48.1595 143.93C48.1595 141.33 49.8695 140.51 52.2495 140.28C58.0995 139.74 73.2595 139.79 77.8095 140.32C80.1495 140.59 81.9495 141.54 82.3095 144.37V144.38Z" fill="#294753"/>
<path d="M108.009 120.84C108.009 123.45 106.479 125.52 103.639 125.29C100.849 125.07 94.7294 125.07 91.3994 125.33C88.5694 125.56 86.8994 123.49 86.8994 120.83C86.8994 118.17 88.3394 116.64 91.1794 116.37L92.5294 116.24C92.5694 115.52 92.6594 114.8 92.8394 114.12C93.3794 112.1 94.5494 110.79 97.4294 110.79C100.309 110.79 101.799 112.1 102.199 114.12C102.329 114.84 102.419 115.51 102.419 116.19L103.719 116.32C106.549 116.63 107.999 118.21 107.999 120.82L108.009 120.84ZM107.379 137.04C107.379 144.19 103.549 147.97 97.4794 147.97C91.4094 147.97 87.5294 144.19 87.5294 137.04C87.5294 129.89 91.3994 125.97 97.4794 125.97C103.559 125.97 107.379 129.79 107.379 137.04ZM99.3294 137.04C99.3294 135.55 98.7494 134.38 97.4894 134.38C96.2294 134.38 95.5994 135.64 95.5994 137.04C95.5994 138.52 96.2294 139.56 97.4894 139.56C98.7494 139.56 99.3294 138.52 99.3294 137.04ZM129.299 147.3C128.979 150.67 127.229 151.93 125.069 151.93C122.909 151.93 120.929 150.85 120.709 147.47C120.479 144.37 120.389 139.73 120.349 134.78C120.219 134.82 120.079 134.82 119.899 134.82H118.599C118.509 139.19 118.379 143.32 118.149 146.47C117.879 149.89 115.859 151.1 113.739 151.1C111.619 151.1 109.689 150.02 109.419 146.65C108.789 138.5 108.839 122.94 109.379 114.7C109.609 111.24 111.849 110.33 113.789 110.33C115.729 110.33 117.929 111.32 118.199 114.7C118.379 116.86 118.519 120.24 118.559 124.06C119.229 124.02 119.909 124.02 120.309 124.02H120.399C120.439 119.93 120.539 116.28 120.669 113.85C120.849 110.39 122.919 109.48 124.989 109.48C127.059 109.48 129.219 110.47 129.489 113.85C130.159 122.31 130.029 139.54 129.309 147.28L129.299 147.3Z" fill="#294753"/>
<path d="M174.11 143.66C174.11 145.78 172.94 147.71 169.7 147.98C161.2 148.7 145.58 148.74 137.53 148.07C134.33 147.8 132.72 146.14 132.72 143.66C132.72 141.18 134.34 139.57 137.53 139.39C140.5 139.21 143.96 139.12 147.56 139.03C147.52 137.28 147.52 135.3 147.52 133.99C145.05 133.9 142.98 133.77 142.03 133.63C138.88 133.09 136.86 131.74 136.13 128.46C135.23 124.41 135.5 118.11 136.31 114.74C136.98 111.91 138.74 110.82 141.21 110.87C143.55 110.91 145.58 111.95 145.84 114.74V114.78C150.12 114.6 155.92 114.65 159.79 114.82C160.33 112.21 161.77 110.68 164.47 110.68C167.66 110.68 169.33 112.66 169.64 115.9C170.04 119.99 170.18 124.76 169.46 130.43C169.1 133.26 167.39 134.97 164.65 134.97C163.35 134.97 162.22 134.56 161.32 133.89L158.57 134.03C158.57 135.33 158.57 137.22 158.53 138.98C162.67 139.02 166.58 139.16 169.69 139.39C172.93 139.61 174.1 141.55 174.1 143.66H174.11ZM145.76 125.93C147.34 125.79 155.12 125.75 159.44 125.88C159.4 124.89 159.4 123.9 159.4 122.91C155.48 123.04 150.09 123.04 145.99 122.91C145.95 123.9 145.85 124.89 145.76 125.93V125.93Z" fill="#294753"/>
<path d="M195.35 137.4C196.93 139.25 196.84 141.72 195.26 143.7C193.78 145.55 191.26 145.19 189.01 144.15C187.75 143.57 186.54 142.76 185.46 141.77C185.19 142.4 184.92 142.94 184.7 143.39C183.35 146.18 180.61 146.94 178.45 146.18C176.16 145.41 174.9 143.61 175.44 140.56C176.38 134.98 182.55 118.87 184.93 114.46C186.1 112.34 188.67 111.4 190.87 112.12C193.08 112.88 194.16 114.59 193.8 117.34C193.44 120.04 191.19 126.83 188.94 133C191.69 134.26 193.8 135.61 195.37 137.41L195.35 137.4ZM206.73 114.72C207.14 122.01 207.36 137.98 206.69 146.71C206.42 150.13 204.4 151.34 202.28 151.34C200.16 151.34 198.1 150.26 197.92 146.88C197.65 142.11 197.51 137.52 197.47 133.25C196.97 133.29 196.48 133.29 196.12 133.29C193.46 133.29 192.12 130.82 192.12 128.21C192.12 125.6 193.6 122.72 196.57 122.72H197.56C197.65 119.84 197.74 117.14 197.88 114.71C198.06 111.25 200.31 110.34 202.24 110.34C204.17 110.34 206.56 111.33 206.74 114.71L206.73 114.72ZM217.44 147.52C217.17 150.9 215.23 152.15 213.07 152.15C210.91 152.15 208.57 151.07 208.48 147.69C208.17 137.16 208.35 122.09 208.44 113.85C208.48 110.39 210.96 109.48 213.03 109.48C215.1 109.48 217.35 110.47 217.62 113.85C218.29 122.31 218.29 136.84 217.44 147.51V147.52Z" fill="#294753"/>
<path d="M262.309 143.88C262.309 145.95 261.319 147.88 258.079 148.11C249.579 148.69 234.949 148.74 225.549 148.2C222.349 148.02 220.919 146.31 220.919 143.88C220.919 141.45 222.359 139.65 225.549 139.51L228.919 139.38V138.52C229.059 135.64 230.679 134.07 234.229 134.07C237.779 134.07 239.399 135.64 239.539 138.52V139.2C240.979 139.2 242.419 139.15 243.859 139.15V138.52C243.999 135.64 245.609 134.07 249.169 134.07C252.729 134.07 254.339 135.64 254.479 138.52V139.33L258.079 139.51C261.319 139.69 262.309 141.8 262.309 143.88ZM224.239 122.24C224.239 114.95 230.579 110.86 241.659 110.86C252.739 110.86 259.029 114.95 259.029 122.24C259.029 129.53 252.639 133.53 241.659 133.53C230.679 133.53 224.239 129.48 224.239 122.24ZM235.759 122.24C235.759 124.04 238.009 124.85 241.699 124.85C245.389 124.85 247.499 124.04 247.499 122.24C247.499 120.31 245.339 119.49 241.699 119.49C238.059 119.49 235.759 120.3 235.759 122.24Z" fill="#294753"/>
<path d="M265.91 143.39C265.91 140.19 268.2 138.35 271.67 138.35C275.14 138.35 277.43 140.19 277.43 143.39C277.43 146.59 275.14 148.43 271.67 148.43C268.2 148.43 265.91 146.58 265.91 143.39Z" fill="#294753"/>
<path d="M16.0801 196.47V203.67H14.9401V196.99C14.9401 195.29 14.0601 194.39 12.5401 194.39C10.8401 194.39 9.66011 195.61 9.18011 196.67V203.67H8.04012V196.99C8.04012 195.29 7.14011 194.39 5.64011 194.39C3.94011 194.39 2.76011 195.61 2.28011 196.67V203.67H1.12012V193.47H2.22012V195.35C2.94012 194.25 4.20012 193.31 5.98012 193.31C7.40012 193.31 8.64012 194.07 9.04012 195.47C9.76012 194.33 11.0601 193.31 12.8801 193.31C14.6001 193.31 16.0801 194.43 16.0801 196.47V196.47Z" fill="#294753"/>
<path d="M18.52 198.57C18.52 195.25 20.42 193.33 23.2 193.33C25.98 193.33 27.88 195.25 27.88 198.57C27.88 201.89 25.96 203.83 23.2 203.83C20.44 203.83 18.52 201.91 18.52 198.57V198.57ZM26.7 198.57C26.7 195.95 25.38 194.39 23.2 194.39C21.02 194.39 19.7 195.95 19.7 198.57C19.7 201.19 21 202.75 23.2 202.75C25.4 202.75 26.7 201.21 26.7 198.57Z" fill="#294753"/>
<path d="M29.7603 198.57C29.7603 195.25 31.6603 193.33 34.4403 193.33C37.2203 193.33 39.1203 195.25 39.1203 198.57C39.1203 201.89 37.2003 203.83 34.4403 203.83C31.6803 203.83 29.7603 201.91 29.7603 198.57ZM37.9403 198.57C37.9403 195.95 36.6203 194.39 34.4403 194.39C32.2603 194.39 30.9403 195.95 30.9403 198.57C30.9403 201.19 32.2403 202.75 34.4403 202.75C36.6403 202.75 37.9403 201.21 37.9403 198.57Z" fill="#294753"/>
<path d="M50 203.67H48.9V201.57C48.4 202.73 47.18 203.83 45.26 203.83C43.06 203.83 41 202.11 41 198.57C41 195.03 42.94 193.33 45.24 193.33C47.28 193.33 48.44 194.55 48.84 195.45V189.11H50V203.67V203.67ZM48.84 196.93C48.4 195.39 47.08 194.41 45.54 194.41C43.64 194.41 42.18 195.71 42.18 198.57C42.18 201.43 43.64 202.73 45.54 202.73C47.08 202.73 48.2 201.87 48.84 200.15V196.93V196.93Z" fill="#294753"/>
<path d="M66.7402 203.67H65.6402V201.57C65.1402 202.73 63.9202 203.83 62.0002 203.83C59.8002 203.83 57.7402 202.11 57.7402 198.57C57.7402 195.03 59.6802 193.33 61.9802 193.33C64.0202 193.33 65.1802 194.55 65.5802 195.45V189.11H66.7402V203.67V203.67ZM65.5802 196.93C65.1402 195.39 63.8202 194.41 62.2802 194.41C60.3802 194.41 58.9202 195.71 58.9202 198.57C58.9202 201.43 60.3802 202.73 62.2802 202.73C63.8202 202.73 64.9402 201.87 65.5802 200.15V196.93V196.93Z" fill="#294753"/>
<path d="M69.7402 190.29C69.7402 189.71 70.0602 189.43 70.6402 189.43C71.2202 189.43 71.5602 189.71 71.5602 190.29C71.5602 190.87 71.2402 191.15 70.6402 191.15C70.0402 191.15 69.7402 190.85 69.7402 190.29ZM70.0802 193.47H71.2402V203.67H70.0802V193.47Z" fill="#294753"/>
<path d="M77.0402 198.21L81.0202 197.65V196.59C81.0202 195.07 80.1402 194.29 78.4202 194.29C76.7002 194.29 75.8002 195.51 75.5402 196.59L74.4402 196.27C74.7602 194.87 76.1202 193.31 78.4402 193.31C80.7602 193.31 82.1602 194.45 82.1602 196.37V203.67H81.0602V202.31C80.5202 203.13 79.0002 203.83 77.4402 203.83C75.6802 203.83 74.1802 203.05 74.1802 201.09C74.1802 199.13 75.5202 198.43 77.0402 198.21V198.21ZM77.7402 202.85C79.0402 202.85 80.5602 202.23 81.0202 201.09V198.57L77.4402 199.09C75.9802 199.31 75.3402 199.85 75.3402 201.03C75.3402 202.27 76.1602 202.85 77.7402 202.85Z" fill="#294753"/>
<path d="M91.5002 194.07L90.8602 194.97C90.5402 194.61 90.0602 194.39 89.4402 194.39C87.9802 194.39 86.8802 195.55 86.3802 197.03V203.67H85.2202V193.47H86.3202V195.49C87.0202 194.21 88.1202 193.33 89.6002 193.33C90.5202 193.33 91.1602 193.69 91.5002 194.07V194.07Z" fill="#294753"/>
<path d="M99.9004 193.47H101.08L96.5804 205.45C96.1604 206.59 95.3404 207.13 94.3804 207.13C93.7204 207.13 93.1204 206.91 92.6404 206.57L93.0204 205.57C93.4004 205.85 93.8204 206.09 94.3604 206.09C94.9604 206.09 95.3804 205.75 95.6604 205.03L96.2204 203.67L92.3804 193.47H93.6204L96.7604 202.27L99.9004 193.47Z" fill="#294753"/>
<path d="M102.27 198.11V197.11H119.51V198.11H102.27ZM104.85 205.19V200.11H106.03V204.19H117.23V205.19H104.85ZM105.03 194.27V187.93H106.21V193.27H117.07V194.27H105.03V194.27Z" fill="#294753"/>
<path d="M126.19 193.33V192.33H137.15V193.33H126.19ZM135.97 198.71C135.97 201.09 134.43 202.61 131.71 202.61C128.99 202.61 127.47 201.09 127.47 198.71C127.47 196.33 129.01 194.81 131.71 194.81C134.41 194.81 135.97 196.35 135.97 198.71ZM134.81 198.71C134.81 196.93 133.67 195.83 131.71 195.83C129.75 195.83 128.63 196.93 128.63 198.71C128.63 200.49 129.77 201.61 131.71 201.61C133.65 201.61 134.81 200.51 134.81 198.71ZM134.37 189.07V190.09H128.99V189.07H134.37ZM143.67 195.63V196.63H140.47V205.81H139.29V187.29H140.47V195.63H143.67Z" fill="#294753"/>
<path d="M161.92 198.55V199.55H153.9V205.63H152.72V199.55H144.68V198.55H161.92ZM159.78 195.31V196.27H147.34V191.69H158.08V189.09H147.34V188.11H159.28V192.65H148.52V195.31H159.78Z" fill="#294753"/>
<path d="M163.43 201.33C167.53 201.51 172.47 201.41 175.91 200.47L176.09 201.45C172.57 202.41 167.47 202.51 163.43 202.35V201.33ZM164.69 193.87C164.69 191.27 166.53 189.61 169.51 189.61C172.49 189.61 174.33 191.27 174.33 193.87C174.33 196.47 172.47 198.13 169.51 198.13C166.55 198.13 164.69 196.51 164.69 193.87ZM173.17 193.87C173.17 191.87 171.87 190.63 169.51 190.63C167.15 190.63 165.85 191.87 165.85 193.87C165.85 195.87 167.13 197.11 169.51 197.11C171.89 197.11 173.17 195.91 173.17 193.87ZM177.39 205.81V187.29H178.57V205.81H177.39Z" fill="#294753"/>
<path d="M187.79 201.51C193.65 199.75 195.79 196.61 195.95 191.25H188.47V190.25H197.15C197.15 197.29 194.31 200.63 188.29 202.53L187.79 201.51ZM201.19 205.81V187.29H202.37V205.81H201.19Z" fill="#294753"/>
<path d="M205.67 197.23H222.91V198.23H214.89V202.01H213.71V198.23H205.67V197.23ZM209.43 200.35V204.19H220.63V205.19H208.25V200.35H209.43ZM220.23 187.91V194.97H208.35V187.91H209.53V190.29H219.05V187.91H220.23ZM219.05 193.99V191.27H209.53V193.99H219.05Z" fill="#294753"/>
<path d="M224.27 196.37V195.37H241.51V196.37H224.27ZM226.69 190.65C226.69 188.55 228.79 187.49 232.87 187.49C236.95 187.49 239.09 188.55 239.09 190.65C239.09 192.75 236.95 193.79 232.87 193.79C228.79 193.79 226.69 192.75 226.69 190.65ZM226.79 205.47V201.43H237.69V199.41H226.79V198.43H238.87V202.39H227.97V204.49H239.55V205.47H226.79ZM237.91 190.65C237.91 189.23 236.15 188.47 232.87 188.47C229.59 188.47 227.87 189.23 227.87 190.65C227.87 192.07 229.59 192.81 232.87 192.81C236.15 192.81 237.91 192.07 237.91 190.65Z" fill="#294753"/>
<path d="M256.92 197.61C255.4 196.71 253.82 195.31 252.86 193.77C251.98 195.63 250.66 196.97 248.96 198.11L248.2 197.27C251.08 195.49 252.54 193.01 252.82 188.77L254 188.93C253.9 190.25 253.7 191.41 253.38 192.43C254.32 194.29 255.98 195.79 257.68 196.77L256.92 197.61V197.61ZM251.78 200.35V199.37H263.9V205.81H262.72V200.35H251.78ZM262.76 187.29H263.9V198.23H262.76V193.19H259.98V198.03H258.84V187.63H259.98V192.19H262.76V187.29Z" fill="#294753"/>
<path d="M271.87 201.35C274.27 201.27 276.59 201.03 278.49 200.55L278.65 201.55C275.29 202.39 270.37 202.49 266.47 202.33V201.31C267.81 201.37 269.25 201.41 270.69 201.37V195.39H271.87V201.35V201.35ZM274.83 198.21C275.33 196.49 275.67 193.09 275.61 191.07H267.39V190.05H276.79C276.81 192.91 276.47 196.67 275.95 198.39L274.83 198.21V198.21ZM284.27 195.91V196.85H281.15V205.81H279.97V187.29H281.15V195.91H284.27Z" fill="#294753"/>
<path d="M290.47 197.03H307.71V198.03H299.69V201.93H298.51V198.03H290.47V197.03ZM294.23 200.15V204.19H305.43V205.19H293.05V200.15H294.23ZM305.09 188.11V194.65H293.09V188.11H305.09ZM303.91 193.67V189.09H294.27V193.67H303.91Z" fill="#294753"/>
<path d="M320 201.21L319.22 202.07C317.36 200.81 315.5 198.83 314.42 196.51C313.46 199.25 311.82 200.99 309.7 202.47L308.9 201.61C312.52 199.29 313.96 196.17 314.12 191.09H309.44V190.09H319.6V191.09H315.32C315.28 192.45 315.14 193.63 314.92 194.71C315.8 197.49 317.9 199.83 320 201.21V201.21ZM326.68 195.63V196.63H323.48V205.81H322.3V187.29H323.48V195.63H326.68Z" fill="#294753"/>
<path d="M336.89 202.69H344.91V203.71H327.67V202.69H335.71V199.21H330.25V193.71H341.15V190.25H330.25V189.25H342.33V194.71H331.43V198.21H342.81V199.21H336.89V202.69Z" fill="#294753"/>
<path d="M352.19 201.51C358.05 199.75 360.19 196.61 360.35 191.25H352.87V190.25H361.55C361.55 197.29 358.71 200.63 352.69 202.53L352.19 201.51ZM365.59 205.81V187.29H366.77V205.81H365.59Z" fill="#294753"/>
<path d="M379.29 197.45H387.31V198.45H370.07V197.45H378.11V195.19H372.75V191.01H383.45V188.79H372.75V187.83H384.63V191.97H373.93V194.23H385.01V195.19H379.29V197.45V197.45ZM372.33 201.53V200.53H384.79V205.85H383.61V201.53H372.33Z" fill="#294753"/>
<path d="M388.79 193.33V192.33H399.75V193.33H388.79ZM398.57 198.71C398.57 201.09 397.03 202.61 394.31 202.61C391.59 202.61 390.07 201.09 390.07 198.71C390.07 196.33 391.61 194.81 394.31 194.81C397.01 194.81 398.57 196.35 398.57 198.71ZM397.41 198.71C397.41 196.93 396.27 195.83 394.31 195.83C392.35 195.83 391.23 196.93 391.23 198.71C391.23 200.49 392.37 201.61 394.31 201.61C396.25 201.61 397.41 200.51 397.41 198.71ZM396.97 189.07V190.09H391.59V189.07H396.97ZM406.27 195.63V196.63H403.07V205.81H401.89V187.29H403.07V195.63H406.27Z" fill="#294753"/>
<path d="M415.41 202.55H424.51V203.57H407.27V202.55H414.23V195.67H415.41V202.55ZM420.59 190.61H409.41V189.59H421.81V191.05C421.81 194.41 421.33 197.65 420.55 200.09L419.37 199.95C420.15 197.69 420.59 194.35 420.59 191.61V190.61V190.61Z" fill="#294753"/>
<path d="M11.2202 225.21L10.4402 226.07C8.60015 224.81 6.74016 222.83 5.66016 220.51C4.72016 223.25 3.08015 224.99 0.960152 226.47L0.160156 225.61C3.78016 223.27 5.20015 220.17 5.38015 215.09H0.720154V214.09H10.8401V215.09H6.56015C6.52015 216.45 6.38016 217.65 6.16016 218.71C7.04016 221.51 9.14015 223.83 11.2202 225.21ZM14.3202 211.29H15.5002V229.81H14.3202V220.19H10.0402V219.17H14.3202V211.29Z" fill="#294753"/>
<path d="M19.72 222.03L19.02 221.17C22.46 219.55 23.94 217.31 24.1 213.85H19.56V212.87H29.48V213.85H25.28C25.24 214.71 25.12 215.49 24.94 216.19C25.84 218.11 27.86 219.71 29.86 220.69L29.16 221.57C27.36 220.65 25.54 219.21 24.46 217.55C23.5 219.61 21.84 220.95 19.72 222.03V222.03ZM33.46 226.23C33.46 228.53 31.34 229.69 27.48 229.69C23.62 229.69 21.54 228.53 21.54 226.23C21.54 223.93 23.62 222.77 27.48 222.77C31.34 222.77 33.46 223.97 33.46 226.23ZM32.28 226.23C32.28 224.59 30.64 223.77 27.48 223.77C24.32 223.77 22.7 224.59 22.7 226.23C22.7 227.87 24.32 228.71 27.48 228.71C30.64 228.71 32.28 227.89 32.28 226.23ZM33.2 216.31H36.18V217.31H33.2V222.49H32.02V211.29H33.2V216.31Z" fill="#294753"/>
<path d="M48.2801 214.83V215.81H37.6401V214.83H48.2801V214.83ZM43.0201 223.39C40.3601 223.39 38.8601 222.23 38.8601 220.23C38.8601 218.23 40.3601 217.05 43.0201 217.05C45.6801 217.05 47.1601 218.23 47.1601 220.23C47.1601 222.23 45.6601 223.39 43.0201 223.39ZM43.0201 222.43C44.9001 222.43 46.0001 221.63 46.0001 220.23C46.0001 218.83 44.9001 218.03 43.0201 218.03C41.1401 218.03 40.0201 218.83 40.0201 220.23C40.0201 221.63 41.1201 222.43 43.0201 222.43ZM45.5801 212.09V213.07H40.3601V212.09H45.5801ZM41.9001 224.37V228.15H52.6201V229.11H40.7201V224.37H41.9001V224.37ZM51.8001 217.75H54.7801V218.75H51.8001V225.15H50.6201V211.29H51.8001V217.75V217.75Z" fill="#294753"/>
<path d="M61.1899 227.45V226.43H78.4299V227.45H61.1899ZM73.1299 224.51C73.9899 222.15 74.4699 218.67 74.4699 215.81V214.77H63.3099V213.73H75.6899V215.25C75.6899 218.73 75.1699 222.13 74.3099 224.67L73.1299 224.51V224.51Z" fill="#294753"/>
<path d="M96.2601 218.65C93.7001 219.69 90.0001 220.05 86.0801 219.61V212.39H87.2601V218.73C90.3601 218.99 93.5201 218.67 96.0201 217.69L96.2601 218.65V218.65ZM89.3801 226.13V228.61H100.14V229.61H88.2001V225.15H98.2201V222.75H88.1401V221.77H99.4001V226.13H89.3801V226.13ZM99.4001 215.49H102.38V216.49H99.4001V220.63H98.2201V211.29H99.4001V215.49Z" fill="#294753"/>
<path d="M103.75 225.33C107.85 225.51 112.79 225.41 116.23 224.47L116.41 225.45C112.89 226.41 107.79 226.51 103.75 226.35V225.33ZM105.01 217.87C105.01 215.27 106.85 213.61 109.83 213.61C112.81 213.61 114.65 215.27 114.65 217.87C114.65 220.47 112.79 222.13 109.83 222.13C106.87 222.13 105.01 220.51 105.01 217.87ZM113.49 217.87C113.49 215.87 112.19 214.63 109.83 214.63C107.47 214.63 106.17 215.87 106.17 217.87C106.17 219.87 107.45 221.11 109.83 221.11C112.21 221.11 113.49 219.91 113.49 217.87ZM117.71 229.81V211.29H118.89V229.81H117.71Z" fill="#294753"/>
<path d="M128.12 225.51C133.98 223.75 136.12 220.61 136.28 215.25H128.8V214.25H137.48C137.48 221.29 134.64 224.63 128.62 226.53L128.12 225.51ZM141.52 229.81V211.29H142.7V229.81H141.52Z" fill="#294753"/>
<path d="M145.99 221.23H163.23V222.23H155.21V226.01H154.03V222.23H145.99V221.23V221.23ZM149.75 224.35V228.19H160.95V229.19H148.57V224.35H149.75ZM160.55 211.91V218.97H148.67V211.91H149.85V214.29H159.37V211.91H160.55ZM159.37 217.99V215.27H149.85V217.99H159.37Z" fill="#294753"/>
<path d="M164.59 220.35V219.37H181.83V220.35H164.59ZM167.11 229.47V225.43H178.01V223.41H167.11V222.43H179.19V226.39H168.29V228.49H179.87V229.47H167.11ZM167.23 217.39V211.87H179.21V212.85H168.41V216.41H179.37V217.39H167.23V217.39Z" fill="#294753"/>
<path d="M183.19 220.37V219.37H200.43V220.37H183.19ZM185.61 214.65C185.61 212.55 187.71 211.49 191.79 211.49C195.87 211.49 198.01 212.55 198.01 214.65C198.01 216.75 195.87 217.79 191.79 217.79C187.71 217.79 185.61 216.75 185.61 214.65ZM185.71 229.47V225.43H196.61V223.41H185.71V222.43H197.79V226.39H186.89V228.49H198.47V229.47H185.71ZM196.83 214.65C196.83 213.23 195.07 212.47 191.79 212.47C188.51 212.47 186.79 213.23 186.79 214.65C186.79 216.07 188.51 216.81 191.79 216.81C195.07 216.81 196.83 216.07 196.83 214.65Z" fill="#294753"/>
<path d="M216.22 226.69H224.24V227.69H207V226.69H215.04V221.93H209.56V213.35H221.68V221.93H216.22V226.69ZM210.72 214.35V220.93H220.52V214.35H210.72Z" fill="#294753"/>
<path d="M235.56 220.03C235.56 224.15 233.84 226.47 230.86 226.47C227.88 226.47 226.16 224.11 226.16 220.01C226.16 215.91 227.88 213.55 230.86 213.55C233.84 213.55 235.56 215.91 235.56 220.03V220.03ZM234.4 220.03C234.4 216.47 233.08 214.59 230.86 214.59C228.64 214.59 227.32 216.47 227.32 220.03C227.32 223.59 228.64 225.45 230.86 225.45C233.08 225.45 234.4 223.57 234.4 220.03ZM243.2 219.49V220.49H240V229.81H238.82V211.29H240V219.49H243.2Z" fill="#294753"/>
<path d="M253.42 219.79H261.44V220.79H244.2V219.79H252.24V217.75H246.88V211.63H248.06V213.53H257.58V211.63H258.76V217.75H253.42V219.79ZM247.9 226.59V228.51H259.48V229.47H246.72V225.63H257.62V223.79H246.72V222.83H258.8V226.59H247.9V226.59ZM248.06 214.49V216.79H257.58V214.49H248.06Z" fill="#294753"/>
<path d="M285.24 221.77V222.79H277.22V229.63H276.04V222.79H268V221.77H285.24ZM269.9 219.77L269.38 218.81C273.58 217.77 276.16 215.25 276.52 211.87L277.68 212.09C277.58 212.91 277.36 213.69 277.04 214.39C278.24 216.43 281.36 218.13 283.96 218.71L283.4 219.69C280.92 219.07 277.74 217.37 276.42 215.51C275.04 217.57 272.7 219.01 269.9 219.77V219.77Z" fill="#294753"/>
<path d="M292.59 216.87C292.59 214.15 294.33 212.55 297.33 212.55C300.33 212.55 302.05 214.15 302.05 216.89C302.05 219.63 300.33 221.21 297.33 221.21C294.33 221.21 292.59 219.61 292.59 216.87ZM308.97 229.03L308.27 229.89C306.91 229.25 305.43 227.89 304.67 226.63C303.89 228.11 302.67 229.19 301.25 229.89C299.87 229.15 298.51 227.85 297.79 226.53C296.97 228.09 295.71 229.23 294.21 229.93L293.51 229.09C295.85 228.07 297.43 226.17 297.53 222.71L298.71 222.85C298.69 223.71 298.55 224.51 298.31 225.25C298.85 226.69 300.05 227.95 301.29 228.69C303.07 227.69 304.39 225.93 304.41 222.71L305.57 222.85C305.57 223.77 305.43 224.63 305.19 225.39C305.79 226.75 307.33 228.37 308.97 229.03V229.03ZM293.75 216.89C293.75 219.05 295.07 220.21 297.33 220.21C299.59 220.21 300.89 219.05 300.89 216.89C300.89 214.73 299.57 213.53 297.33 213.53C295.09 213.53 293.75 214.71 293.75 216.89ZM307.11 211.29V221.93H305.93V211.29H307.11Z" fill="#294753"/>
<path d="M310.39 222.11V221.11H327.63V222.11H310.39ZM312.97 229.19V224.11H314.15V228.19H325.35V229.19H312.97ZM313.15 218.27V211.93H314.33V217.27H325.19V218.27H313.15Z" fill="#294753"/>
<path d="M345.56 224.97L344.78 225.87C342.82 224.55 340.76 222.47 339.62 220.19C338.6 222.83 337.02 224.69 334.88 226.35L334.08 225.49C337.54 222.89 339.36 219.69 339.7 213.59L340.88 213.77C340.76 215.63 340.52 217.21 340.14 218.61C341.2 221.27 343.42 223.61 345.56 224.97ZM348.32 211.29H349.5V229.81H348.32V219.79H343.66V218.77H348.32V211.29Z" fill="#294753"/>
<path d="M354.03 225.99V213.77H355.21V218.65H361.43V213.77H362.61V225.99H354.03V225.99ZM355.21 224.97H361.43V219.65H355.21V224.97ZM366.91 229.81V211.29H368.09V229.81H366.91Z" fill="#294753"/>
<path d="M371.39 226.59H388.63V227.59H371.39V226.59ZM373.09 222.39L372.53 221.43C376.87 220.21 379.55 217.21 379.91 213.17L381.07 213.39C380.97 214.37 380.75 215.27 380.41 216.11C381.61 218.59 384.89 220.63 387.59 221.33L386.99 222.31C384.45 221.57 381.17 219.59 379.79 217.37C378.39 219.81 375.97 221.51 373.09 222.39V222.39Z" fill="#294753"/>
<path d="M390.77 216.75C390.77 214.07 392.49 212.51 395.49 212.51C398.49 212.51 400.23 214.09 400.23 216.75C400.23 219.41 398.51 220.99 395.49 220.99C392.47 220.99 390.77 219.41 390.77 216.75ZM399.07 216.75C399.07 214.65 397.75 213.49 395.49 213.49C393.23 213.49 391.93 214.65 391.93 216.75C391.93 218.85 393.25 219.99 395.49 219.99C397.73 219.99 399.07 218.87 399.07 216.75ZM393.75 229.49V222.25H394.93V224.83H404.11V222.25H405.29V229.49H393.75ZM394.93 228.53H404.11V225.79H394.93V228.53ZM404.13 221.13V211.29H405.31V221.13H404.13Z" fill="#294753"/>
<path d="M409.93 213.95H411.13V224.59C414.39 224.89 417.69 224.55 420.31 223.51L420.55 224.47C417.91 225.57 414.05 225.95 409.93 225.51V213.95ZM422.69 229.81V211.29H423.81V229.81H422.69Z" fill="#294753"/>
<path d="M429.33 224.77C432.53 225.05 435.73 224.71 438.29 223.83L438.53 224.81C435.95 225.73 432.19 226.11 428.15 225.69V214.15H436.83V215.17H429.33V224.77ZM444.79 219.49V220.49H441.59V229.81H440.41V211.29H441.59V219.49H444.79Z" fill="#294753"/>
<path d="M446.39 227.15C446.39 226.55 446.75 226.17 447.35 226.17C447.95 226.17 448.35 226.55 448.35 227.15C448.35 227.75 447.97 228.19 447.35 228.19C446.73 228.19 446.39 227.77 446.39 227.15Z" fill="#294753"/>
<path d="M786.99 275.08C741.33 275.08 704.31 238.06 704.31 192.4H645C645 270.82 708.57 334.39 786.99 334.39C865.41 334.39 928.98 270.82 928.98 192.4H869.67C869.67 238.06 832.65 275.08 786.99 275.08Z" fill="#FE906E"/>
<path d="M787.59 250.51C812.404 250.51 832.52 230.394 832.52 205.58C832.52 180.766 812.404 160.65 787.59 160.65C762.776 160.65 742.66 180.766 742.66 205.58C742.66 230.394 762.776 250.51 787.59 250.51Z" fill="#294753"/>
<path d="M791.19 117.52C804.097 117.52 814.56 107.057 814.56 94.15C814.56 81.2431 804.097 70.78 791.19 70.78C778.283 70.78 767.82 81.2431 767.82 94.15C767.82 107.057 778.283 117.52 791.19 117.52Z" fill="#FE906E"/>
<path d="M853.441 108.834L676.71 152.767L683.134 178.61L859.866 134.677L853.441 108.834Z" fill="#A4A9F8"/>
<path d="M885.932 70.1761L714.87 7.71167L705.735 32.7261L876.798 95.1906L885.932 70.1761Z" fill="#A4A9F8"/>
</svg>
