<svg width="258" height="297" viewBox="0 0 258 297" fill="none" xmlns="http://www.w3.org/2000/svg">
<path d="M129.135 242.653C87.6959 242.653 54.098 209.055 54.098 167.616H0.270508C0.270508 238.787 57.9642 296.481 129.135 296.481C200.306 296.481 258 238.787 258 167.616H204.172C204.172 209.055 170.574 242.653 129.135 242.653Z" fill="#FE906E"/>
<path d="M129.68 220.355C152.2 220.355 170.456 202.098 170.456 179.578C170.456 157.058 152.2 138.801 129.68 138.801C107.159 138.801 88.9028 157.058 88.9028 179.578C88.9028 202.098 107.159 220.355 129.68 220.355Z" fill="#294753"/>
<path d="M132.946 99.658C144.66 99.658 154.156 90.162 154.156 78.4482C154.156 66.7344 144.66 57.2385 132.946 57.2385C121.232 57.2385 111.736 66.7344 111.736 78.4482C111.736 90.162 121.232 99.658 132.946 99.658Z" fill="#FE906E"/>
<path d="M189.444 91.7748L29.0493 131.647L34.8798 155.101L195.274 115.229L189.444 91.7748Z" fill="#A4A9F8"/>
<path d="M218.931 56.6904L63.6812 0L55.3913 22.7022L210.641 79.3925L218.931 56.6904Z" fill="#A4A9F8"/>
</svg>
