<svg width="321" height="165" viewBox="0 0 321 165" fill="none" xmlns="http://www.w3.org/2000/svg">
<path d="M14.6511 23.2308C14.6511 25.3577 13.584 26.4533 11.4285 26.7756C9.68839 27.0334 5.66383 27.2553 3.78762 26.8042C1.95437 26.353 0.822909 24.7132 0.565108 22.0993C0.214213 18.4257 0.149765 11.0784 0.472015 7.21136C0.665366 4.86251 1.69657 3.3157 3.43672 2.929C5.79273 2.4134 8.75028 2.38475 10.6838 2.8001C12.8106 3.25125 13.9063 4.8267 14.1641 7.18271C14.4863 10.2477 14.4577 13.8211 14.1354 16.8216C13.9421 18.6262 13.6557 19.8794 13.2976 20.6528C14.2357 21.197 14.6511 21.8773 14.6511 23.2308V23.2308ZM8.17739 9.30957H6.37278C6.46588 10.1116 6.46588 18.9771 6.37278 20.0083H8.17739C8.0843 18.9771 8.0843 10.1188 8.17739 9.30957ZM29.9615 27.549C29.7324 29.9623 28.4792 30.8646 26.9324 30.8646C25.3856 30.8646 23.9677 30.0912 23.8101 27.6707C23.6454 25.4508 23.581 22.128 23.5523 18.5832C23.4592 18.6119 23.359 18.6119 23.2301 18.6119H22.1702C22.1058 21.7413 22.0055 24.6988 21.848 26.9546C21.6546 29.4037 20.2654 30.2702 18.7544 30.2702C17.2434 30.2702 15.8899 29.4968 15.6894 27.0835C15.2383 21.2472 15.2741 10.1044 15.6608 4.20368C15.8183 1.72593 17.4009 1.07427 18.7902 1.07427C20.1794 1.07427 21.6904 1.78322 21.8838 4.20368C22.0127 5.75048 22.1129 8.17095 22.1416 10.9065C22.6858 10.8779 23.2014 10.8779 23.5237 10.8779H23.5881C23.6168 7.94895 23.6884 5.33514 23.7815 3.59499C23.9104 1.11724 25.3927 0.465576 26.8751 0.465576C28.3574 0.465576 29.9043 1.17452 30.0976 3.59499C30.5774 9.6533 30.4843 21.9919 29.9687 27.5346L29.9615 27.549Z" fill="#294753"/>
<path d="M50.9011 8.05637C50.9011 12.8257 47.9077 15.2461 42.3292 15.2461C36.7507 15.2461 33.7573 12.8257 33.7573 8.05637C33.7573 3.28706 36.7507 0.837948 42.3292 0.837948C47.9077 0.837948 50.9011 3.28706 50.9011 8.05637V8.05637ZM61.0484 28.9382C61.0484 30.6784 59.9169 31.3587 57.5323 31.5449C53.7942 31.8385 47.1271 31.9602 42.6156 31.6738C39.1998 31.4446 37.1732 31.0579 36.8151 29.0313C36.5287 27.42 36.5573 25.7157 36.8151 24.4912C37.1732 22.8154 38.1328 22.0707 41.0688 21.9776C44.1911 21.8845 48.3159 21.7842 52.3763 21.8201V20.9178C50.0847 21.1111 41.4842 21.2686 39.5865 21.1756C37.4954 21.0825 36.364 20.1802 36.3353 18.8195C36.3067 17.2083 37.4954 16.2129 39.5865 16.1126C44.3558 15.8835 52.2474 15.819 55.6346 16.084C58.986 16.3418 59.9527 17.1438 60.3394 19.3065C60.4683 20.0154 60.5041 21.3689 60.3394 22.4001C60.0172 24.3694 59.0862 25.3935 55.8279 25.6513C53.3144 25.8446 46.7404 25.8804 44.9072 25.8088V26.6753C46.9696 26.5464 55.119 26.3244 57.5394 26.4175C59.9241 26.5106 61.0555 27.062 61.0555 28.931L61.0484 28.9382ZM44.5205 8.05637C44.5205 7.02516 43.9404 6.22311 42.3292 6.22311C40.7179 6.22311 40.1665 7.02516 40.1665 8.05637C40.1665 9.08757 40.7179 9.86097 42.3292 9.86097C43.9404 9.86097 44.5205 9.08757 44.5205 8.05637ZM53.1855 12.3101C52.8918 9.73207 52.8274 6.25176 53.0924 3.77401C53.3502 1.16736 55.2192 0.293701 56.988 0.293701C58.7568 0.293701 60.4397 1.22465 60.6617 3.77401C60.8908 6.19447 60.8908 9.98987 60.5972 12.5392C60.3681 14.3438 58.9573 15.4037 56.8305 15.4037C54.7036 15.4037 53.4146 14.086 53.1926 12.3101H53.1855Z" fill="#294753"/>
<path d="M78.4567 23.2308C78.4567 25.3577 77.3897 26.4533 75.2342 26.7756C73.4941 27.0334 69.4695 27.2553 67.5933 26.8042C65.76 26.353 64.6286 24.7132 64.3708 22.0993C64.0199 18.4257 63.9554 11.0784 64.2777 7.21136C64.471 4.86251 65.5022 3.3157 67.2424 2.929C69.5984 2.4134 72.5559 2.38475 74.4894 2.8001C76.6163 3.25125 77.7119 4.8267 77.9697 7.18271C78.292 10.2477 78.2634 13.8211 77.9411 16.8216C77.7478 18.6262 77.4613 19.8794 77.1033 20.6528C78.0414 21.197 78.4567 21.8773 78.4567 23.2308V23.2308ZM71.983 9.30957H70.1785C70.2715 10.1116 70.2715 18.9771 70.1785 20.0083H71.983C71.89 18.9771 71.89 10.1188 71.983 9.30957ZM93.7672 27.549C93.538 29.9623 92.2848 30.8646 90.738 30.8646C89.1912 30.8646 87.7733 30.0912 87.6158 27.6707C87.4511 25.4508 87.3866 22.128 87.358 18.5832C87.2649 18.6119 87.1646 18.6119 87.0357 18.6119H85.9759C85.9114 21.7413 85.8112 24.6988 85.6536 26.9546C85.4603 29.4037 84.071 30.2702 82.56 30.2702C81.049 30.2702 79.6956 29.4968 79.4951 27.0835C79.0439 21.2472 79.0797 10.1044 79.4664 4.20368C79.624 1.72593 81.2066 1.07427 82.5958 1.07427C83.9851 1.07427 85.4961 1.78322 85.6895 4.20368C85.8184 5.75048 85.9186 8.17095 85.9472 10.9065C86.4915 10.8779 87.0071 10.8779 87.3293 10.8779H87.3938C87.4224 7.94895 87.4941 5.33514 87.5871 3.59499C87.716 1.11724 89.1984 0.465576 90.6808 0.465576C92.1631 0.465576 93.7099 1.17452 93.9033 3.59499C94.3831 9.6533 94.29 21.9919 93.7744 27.5346L93.7672 27.549Z" fill="#294753"/>
<path d="M114.706 8.05637C114.706 12.8257 111.713 15.2461 106.134 15.2461C100.556 15.2461 97.5625 12.8257 97.5625 8.05637C97.5625 3.28706 100.556 0.837948 106.134 0.837948C111.713 0.837948 114.706 3.28706 114.706 8.05637V8.05637ZM124.854 28.9382C124.854 30.6784 123.722 31.3587 121.337 31.5449C117.599 31.8385 110.932 31.9602 106.421 31.6738C103.005 31.4446 100.978 31.0579 100.62 29.0313C100.334 27.42 100.363 25.7157 100.62 24.4912C100.978 22.8154 101.938 22.0707 104.874 21.9776C107.996 21.8845 112.121 21.7842 116.181 21.8201V20.9178C113.89 21.1111 105.289 21.2686 103.392 21.1756C101.301 21.0825 100.169 20.1802 100.141 18.8195C100.112 17.2083 101.301 16.2129 103.392 16.1126C108.161 15.8835 116.053 15.819 119.44 16.084C122.791 16.3418 123.758 17.1438 124.145 19.3065C124.274 20.0154 124.309 21.3689 124.145 22.4001C123.822 24.3694 122.891 25.3935 119.633 25.6513C117.12 25.8446 110.546 25.8804 108.712 25.8088V26.6753C110.775 26.5464 118.924 26.3244 121.345 26.4175C123.729 26.5106 124.861 27.062 124.861 28.931L124.854 28.9382ZM108.326 8.05637C108.326 7.02516 107.746 6.22311 106.134 6.22311C104.523 6.22311 103.972 7.02516 103.972 8.05637C103.972 9.08757 104.523 9.86097 106.134 9.86097C107.746 9.86097 108.326 9.08757 108.326 8.05637ZM116.991 12.3101C116.697 9.73207 116.633 6.25176 116.898 3.77401C117.155 1.16736 119.024 0.293701 120.793 0.293701C122.562 0.293701 124.245 1.22465 124.467 3.77401C124.696 6.19447 124.696 9.98987 124.402 12.5392C124.173 14.3438 122.763 15.4037 120.636 15.4037C118.509 15.4037 117.22 14.086 116.998 12.3101H116.991Z" fill="#294753"/>
<path d="M128.112 24.6201C128.083 22.8799 129.079 21.7198 131.177 21.3331C133.69 20.882 143.516 20.6241 145.936 21.0108C147.998 21.3331 148.865 22.4288 148.901 24.1976C148.929 25.9735 147.805 27.4201 145.743 27.7137C143.136 28.0717 133.92 28.3582 131.177 28.0359C129.086 27.7781 128.148 26.5536 128.112 24.6201ZM146.831 10.219C146.831 15.8262 143.831 18.884 137.937 18.884C132.043 18.884 129.043 15.819 129.043 10.219C129.043 4.61903 132.036 1.51826 137.937 1.51826C143.838 1.51826 146.831 4.61187 146.831 10.219ZM140.293 10.219C140.293 8.73668 139.455 7.70547 137.937 7.70547C136.419 7.70547 135.617 8.73668 135.617 10.219C135.617 11.7014 136.419 12.6968 137.937 12.6968C139.455 12.6968 140.293 11.6942 140.293 10.219ZM149.896 26.4247C149.187 21.2687 149.187 8.70087 149.867 3.96737C150.225 1.45381 151.636 0.487061 153.412 0.487061C155.188 0.487061 156.663 1.41801 156.921 3.96737C157.279 7.35458 157.243 22.8155 156.893 26.3316C156.635 28.974 155.41 30.2272 153.219 30.1628C151.063 30.0983 150.225 28.7449 149.903 26.4247H149.896Z" fill="#294753"/>
<path d="M186.733 12.5034C184.9 17.108 180.739 23.4886 176.421 26.7111C174.81 27.9357 172.747 28.0001 171.329 26.6753C169.783 25.2574 169.976 23.3597 171.423 21.7771C174.71 18.261 178.283 13.7853 180.088 9.63182C178.154 9.82517 175.834 9.86098 173.549 9.69627C171.587 9.56737 170.298 8.31417 170.234 6.40931C170.169 4.47581 171.43 3.0579 173.814 2.8001C176.715 2.47785 180.066 2.47785 183.511 2.8932C185.831 3.18681 187.249 4.50445 187.6 6.50241C187.922 8.24256 187.757 9.88246 186.726 12.4963L186.733 12.5034ZM189.891 26.4247C189.182 21.2687 189.182 8.70087 189.862 3.96737C190.221 1.45381 191.767 0.487061 193.536 0.487061C195.305 0.487061 197.016 1.51826 197.21 4.06762C197.568 8.80113 197.532 21.1756 197.181 26.2385C196.988 28.8809 195.541 30.2344 193.343 30.1699C191.187 30.1055 190.221 28.752 189.898 26.4318L189.891 26.4247Z" fill="#294753"/>
<path d="M230.266 18.5257C230.266 19.6858 229.851 21.1037 227.401 21.297C225.89 21.4259 223.119 21.4904 219.925 21.5548C219.925 21.7482 219.925 21.9702 219.897 22.1993C219.768 24.0326 218.35 24.9349 216.158 24.9349C214.096 24.9349 212.585 24.0326 212.42 22.1993L212.356 21.5548C208.811 21.5548 205.524 21.4618 203.526 21.297C201.077 21.1037 200.626 19.6858 200.626 18.5257C200.626 17.3656 201.077 15.9835 203.526 15.783C208.167 15.4249 223.148 15.4607 227.401 15.783C229.851 15.9763 230.266 17.3298 230.266 18.5257V18.5257ZM228.203 28.2863C228.203 29.6756 227.623 30.9001 224.917 31.1866C221.085 31.6019 211.769 31.5088 207.1 31.1866C204.844 31.029 203.362 29.9334 203.039 28.3221C202.781 27.0045 202.846 25.9733 203.039 24.9063C203.333 23.2306 204.844 22.2352 207.164 22.2352C209.484 22.2352 211.096 23.0372 211.289 24.3262C211.353 24.7774 211.353 25.2285 211.325 25.6152C215.736 25.2285 221.794 25.2285 224.988 25.5508C227.631 25.8086 228.211 27.2265 228.211 28.2863H228.203ZM203.906 11.0781C203.29 8.69346 203.39 4.99116 203.97 2.9574C204.45 1.25305 205.581 0.415198 207.35 0.479648C208.897 0.544098 210.021 1.0597 210.344 2.44896C213.373 2.28425 217.562 2.25561 220.362 2.42031C220.777 1.13131 221.715 0.35791 223.491 0.35791C225.783 0.35791 226.714 1.55382 226.936 3.48016C227.23 5.95791 227.23 9.30932 226.807 12.0807C226.549 13.785 225.454 14.8234 223.491 14.8234C222.525 14.8234 221.787 14.5656 221.2 14.1431H221.171C218.951 14.6229 210.279 14.5584 208.152 14.272C205.897 13.9497 204.414 13.0474 203.899 11.0853L203.906 11.0781ZM210.48 7.46891C210.451 7.88426 210.415 8.33541 210.351 8.85101C211.575 8.75791 217.247 8.69346 219.889 8.78655V7.49755C217.118 7.56201 213.351 7.562 210.48 7.46891Z" fill="#294753"/>
<path d="M231.555 14.2435C231.555 13.1836 232.163 11.8588 234.612 11.7299C239.446 11.4721 253.912 11.5724 258.165 11.7299C260.615 11.823 261.195 13.1836 261.195 14.2435C261.195 15.3033 260.615 16.4992 258.165 16.6926C253.912 17.0148 239.897 17.0506 234.612 16.6926C232.163 16.535 231.555 15.3105 231.555 14.2435ZM236.933 17.7882C242.053 17.6307 248.82 17.5591 253.332 17.7238C256.812 17.8527 258.037 18.6261 258.194 20.6527C258.259 21.4547 258.323 22.3928 258.194 23.5171C258.001 25.2859 256.97 26.0307 252.974 26.224C250.36 26.3529 246.686 26.3888 242.79 26.3243V27.0333C245.949 26.9044 253.554 26.711 255.903 26.8113C257.9 26.9044 258.767 27.4844 258.767 29.0312C258.767 30.6711 257.893 31.5448 255.903 31.645C251.649 31.8026 246.142 31.8026 240.434 31.645C236.926 31.5448 234.892 30.9361 234.476 29.0312C234.247 28 234.219 26.5821 234.448 25.3289C234.706 23.9755 235.543 23.3023 238.859 23.2021C242.082 23.109 245.82 23.0732 249.973 23.1376V22.3928C246.593 22.4859 241.595 22.5504 236.926 22.5504C234.956 22.5504 234.025 21.6194 233.961 20.1371C233.932 18.6189 235.056 17.8455 236.926 17.7811L236.933 17.7882ZM258.395 5.47826C258.395 9.60307 254.27 10.9852 246.407 10.9852C238.544 10.9852 234.455 9.60307 234.455 5.47826C234.455 1.35345 238.451 0 246.407 0C254.363 0 258.395 1.4179 258.395 5.47826ZM250.403 5.44962C250.403 4.80512 249.694 4.64757 246.443 4.64757C243.192 4.64757 242.447 4.80512 242.447 5.44962C242.447 6.09412 243.192 6.25166 246.443 6.25166C249.694 6.25166 250.403 6.09412 250.403 5.44962Z" fill="#294753"/>
<path d="M31.3438 63.2254C31.0502 65.5456 29.7326 67.028 27.3837 67.028C25.0349 67.028 23.6814 65.7032 23.5454 63.3902C23.4165 60.8122 23.3878 58.3988 23.3878 55.4986C23.3878 54.3385 23.1587 52.5983 21.7479 52.5983C21.1965 52.5983 20.6809 52.9492 20.2942 53.5651C20.3587 56.6587 20.3229 59.8168 19.972 63.2326C19.7428 65.5528 18.5541 67.0352 16.1981 67.0352C13.842 67.0352 12.6533 65.7104 12.4958 63.3973C12.3024 60.7191 12.238 58.0838 12.238 55.5058C12.238 54.3456 12.0088 52.6055 10.5981 52.6055C10.0466 52.6055 9.56685 52.9564 9.18015 53.5364C9.2446 56.7589 9.05125 60.2679 8.79345 63.2326C8.6001 65.5528 7.28245 67.0352 4.92644 67.0352C2.57043 67.0352 1.41749 65.5528 1.15969 63.2326C0.708536 59.0434 0.744344 53.7942 1.22414 49.6981C1.51775 47.1845 3.31518 46.2822 5.09114 46.2822C6.7024 46.2822 8.31366 47.027 8.79345 49.0536C9.69575 47.5712 11.307 46.2822 14.4006 46.2822C17.0431 46.2822 18.819 47.6715 19.6497 49.5692C20.4876 47.8648 22.0988 46.2822 25.5433 46.2822C29.3101 46.2822 31.573 49.118 31.6947 52.2761C31.7878 54.496 31.8236 59.3298 31.3367 63.2326L31.3438 63.2254Z" fill="#294753"/>
<path d="M34.022 56.6516C34.022 50.3355 38.469 46.2751 44.6204 46.2751C50.7719 46.2751 55.2189 50.3355 55.2189 56.6516C55.2189 62.9677 50.7719 67.0281 44.6204 67.0281C38.469 67.0281 34.022 62.9677 34.022 56.6516ZM47.8788 56.6516C47.8788 54.6537 46.5897 53.1069 44.6276 53.1069C42.6655 53.1069 41.3765 54.6537 41.3765 56.6516C41.3765 58.6496 42.6296 60.1964 44.6276 60.1964C46.6256 60.1964 47.8788 58.6496 47.8788 56.6516Z" fill="#294753"/>
<path d="M57.1528 56.6516C57.1528 50.3355 61.5999 46.2751 67.7513 46.2751C73.9027 46.2751 78.3498 50.3355 78.3498 56.6516C78.3498 62.9677 73.9027 67.0281 67.7513 67.0281C61.5999 67.0281 57.1528 62.9677 57.1528 56.6516ZM71.0096 56.6516C71.0096 54.6537 69.7206 53.1069 67.7585 53.1069C65.7963 53.1069 64.5073 54.6537 64.5073 56.6516C64.5073 58.6496 65.7605 60.1964 67.7585 60.1964C69.7564 60.1964 71.0096 58.6496 71.0096 56.6516Z" fill="#294753"/>
<path d="M100.592 63.2542C100.298 65.5744 99.274 67.0281 96.918 67.0281C94.8556 67.0281 93.6955 65.8966 93.2443 64.0276C92.4065 65.7677 90.8883 67.0281 88.1886 67.0281C83.3548 67.0281 80.1323 63.0035 80.1323 56.6802C80.1323 50.357 83.3548 46.2751 88.1886 46.2751C90.1579 46.2751 91.6976 47.0199 92.7932 47.7933C92.8577 45.602 92.9865 43.6398 93.1799 42.2506C93.5021 39.737 95.1492 38.8347 96.918 38.8347C98.6868 38.8347 100.398 39.737 100.721 42.2506C101.336 46.9912 101.236 58.1053 100.592 63.2613V63.2542ZM92.7646 58.6496L92.6715 54.2025C92.1559 53.6583 91.5114 53.2071 90.5804 53.2071C88.9047 53.2071 87.716 54.625 87.716 56.6874C87.716 58.7498 88.9119 59.9744 90.5804 59.9744C91.5758 59.9744 92.2561 59.4588 92.7717 58.6567L92.7646 58.6496Z" fill="#294753"/>
<path d="M133.526 63.2542C133.233 65.5744 132.209 67.0281 129.853 67.0281C127.79 67.0281 126.63 65.8966 126.179 64.0276C125.341 65.7677 123.823 67.0281 121.123 67.0281C116.289 67.0281 113.067 63.0035 113.067 56.6802C113.067 50.357 116.289 46.2751 121.123 46.2751C123.092 46.2751 124.632 47.0199 125.728 47.7933C125.792 45.602 125.921 43.6398 126.114 42.2506C126.437 39.737 128.084 38.8347 129.853 38.8347C131.621 38.8347 133.333 39.737 133.655 42.2506C134.271 46.9912 134.171 58.1053 133.526 63.2613V63.2542ZM125.699 58.6496L125.606 54.2025C125.09 53.6583 124.446 53.2071 123.515 53.2071C121.839 53.2071 120.651 54.625 120.651 56.6874C120.651 58.7498 121.846 59.9744 123.515 59.9744C124.51 59.9744 125.191 59.4588 125.706 58.6567L125.699 58.6496Z" fill="#294753"/>
<path d="M140.909 46.2753C142.685 46.2753 144.547 47.1776 144.84 49.6911C145.32 53.7801 145.163 59.0364 144.712 63.2257C144.454 65.5459 143.165 67.0282 140.809 67.0282C138.453 67.0282 137.235 65.5459 136.978 63.2257C136.526 59.0364 136.562 53.7873 137.042 49.6911C137.336 47.1776 139.133 46.2753 140.909 46.2753V46.2753ZM137.207 41.506C137.207 39.5725 138.596 38.2834 140.88 38.2834C143.165 38.2834 144.554 39.5725 144.554 41.506C144.554 43.4395 143.172 44.7285 140.88 44.7285C138.589 44.7285 137.207 43.4395 137.207 41.506Z" fill="#294753"/>
<path d="M167.14 63.5478C166.982 65.868 165.529 67.0281 163.18 67.0281C161.54 67.0281 160.28 66.448 159.664 65.3166C158.668 66.3191 157.122 67.0281 154.83 67.0281C150.447 67.0281 147.39 64.9012 147.39 61.1273C147.39 57.3534 150.132 55.1979 154.83 55.1979C156.635 55.1979 157.959 55.5202 158.919 56.1289C158.762 54.5821 157.859 53.3575 155.89 53.3575C153.921 53.3575 152.925 53.6511 151.414 54.1023C148.449 54.9688 146.709 50.0777 149.352 48.3017C151.092 47.1416 154.157 46.2751 157.537 46.2751C162.757 46.2751 167.204 49.469 167.298 54.8112C167.362 58.8716 167.298 61.2204 167.133 63.5406L167.14 63.5478ZM159.019 59.8097C157.566 58.7427 155.346 58.9432 155.346 60.8409C155.346 61.6143 155.825 62.3877 157.179 62.3877C158.339 62.3877 159.019 61.8076 159.019 60.712V59.8097Z" fill="#294753"/>
<path d="M186.347 50.6866C185.767 52.9423 184.284 54.3244 182.515 53.6155C181.713 53.2932 181.097 53.0999 180.26 53.0999C179.357 53.0999 178.842 53.4866 178.391 54.482C178.419 57.4467 178.262 60.5403 177.975 63.2114C177.717 65.5316 176.428 67.0139 174.072 67.0139C171.716 67.0139 170.499 65.5316 170.241 63.2114C169.79 59.0221 169.826 53.773 170.306 49.6768C170.599 47.1633 172.397 46.261 174.173 46.261C175.949 46.261 177.811 47.1633 178.104 49.6768C178.104 49.7413 178.104 49.8058 178.133 49.8702C178.713 48.3878 180.324 46.261 183.418 46.261C185.996 46.261 187.056 47.9367 186.347 50.6794V50.6866Z" fill="#294753"/>
<path d="M209.219 51.1089C207.93 55.7493 201.936 68.0235 199.1 71.9549C197.683 73.9171 195.685 75.113 193.522 74.046C191.689 73.1437 191.524 71.4966 192.269 69.1478C192.591 68.1452 193.493 65.9897 194.46 63.8986C192.526 62.1298 188.66 54.7467 187.757 51.2664C187.113 48.8173 187.951 47.3063 189.598 46.626C191.245 45.9457 193.171 46.046 194.496 48.2086C195.813 50.3641 197.396 53.8516 198.492 56.8091C199.265 54.7825 201.521 49.913 202.581 48.3375C203.934 46.3109 205.581 45.9171 207.257 46.5329C209.09 47.2132 209.899 48.6598 209.219 51.1089V51.1089Z" fill="#294753"/>
<path d="M240.062 63.8344C240.062 65.3454 239.224 66.6988 236.904 66.8922C230.817 67.4078 219.631 67.4436 213.866 66.9566C211.575 66.7633 210.422 65.6032 210.422 63.8344C210.422 62.0656 211.582 60.841 213.866 60.7408C216.058 60.6477 218.636 60.5832 221.307 60.5188C221.278 59.8098 221.278 59.0651 221.278 58.5208L219.345 58.4277C215.9 58.2344 214.06 57.7832 213.515 55.4988C213.1 53.7229 213.157 51.0804 213.515 49.6983C213.967 47.9582 215.22 47.3423 217.798 47.2206C220.763 47.0559 226.398 47.0559 228.525 47.1561V45.9602C225.238 46.1536 218.922 46.2825 216.28 46.1536C213.895 46.0247 212.964 45.0866 212.964 43.2533C212.964 41.4201 214.217 40.6753 216.187 40.5106C220.505 40.1525 227.752 40.0953 232.134 40.482C235.164 40.7398 236.259 41.5776 236.675 43.9981C236.839 44.9648 236.803 47.3137 236.546 48.6027C236.13 50.7582 234.705 51.4098 232.263 51.596C229.105 51.8538 223.756 51.8538 221.6 51.7607V52.885C223.921 52.7275 230.33 52.663 233.846 52.8564C236.359 52.9853 237.52 53.6942 237.52 55.5346C237.52 57.4968 236.488 58.3346 233.975 58.4994C232.586 58.5924 230.91 58.6282 229.141 58.6282C229.141 59.1797 229.141 59.8242 229.112 60.4973C232.013 60.5259 234.72 60.5904 236.911 60.7551C239.231 60.9198 240.069 62.3377 240.069 63.8487L240.062 63.8344Z" fill="#294753"/>
<path d="M17.8737 89.8435C16.0404 94.4481 11.8798 100.829 7.56164 104.051C5.95039 105.276 3.88798 105.34 2.47008 104.015C0.923273 102.597 1.11662 100.7 2.56317 99.1172C5.85013 95.6011 9.42353 91.1254 11.2281 86.9719C9.29463 87.1653 6.97442 87.2011 4.69003 87.0364C2.72788 86.9075 1.43887 85.6543 1.37442 83.7494C1.30997 81.8159 2.57033 80.398 4.95499 80.1402C7.85525 79.8179 11.2067 79.8179 14.6512 80.2333C16.9714 80.5269 18.3893 81.8445 18.7402 83.8425C19.0624 85.5827 18.8977 87.2226 17.8665 89.8364L17.8737 89.8435ZM21.0317 103.765C20.3228 98.6087 20.3228 86.041 21.0031 81.3075C21.3611 78.7939 22.9079 77.8271 24.6767 77.8271C26.4455 77.8271 28.157 78.8584 28.3504 81.4077C28.7084 86.1412 28.6726 98.5156 28.3218 103.579C28.1284 106.221 26.6819 107.574 24.4834 107.51C22.3279 107.446 21.3611 106.092 21.0389 103.772L21.0317 103.765Z" fill="#294753"/>
<path d="M61.406 95.9949C61.406 97.1908 60.604 98.6374 58.2838 98.7376C52.87 98.9596 41.0111 98.9596 35.182 98.8021C32.8904 98.7376 31.7661 97.4486 31.7661 95.9949C31.7661 94.4481 32.8904 93.4527 35.182 93.3525C37.1513 93.2522 39.8224 93.1877 42.7226 93.1591V92.4501C41.6628 92.4215 40.696 92.3857 39.8868 92.3213C36.7001 92.0993 35.4756 91.8056 34.9242 89.8435C34.6019 88.712 34.6019 86.8788 34.9242 85.7831C35.3753 84.3008 36.471 83.6921 38.7912 83.5918C41.7201 83.4629 48.2009 83.4629 49.7763 83.4987V82.8184C46.3963 82.9115 42.2357 82.976 37.5022 82.976C35.4111 82.976 34.251 82.1095 34.2152 80.5269C34.1794 78.887 35.3109 78.2711 36.9866 78.1422C40.918 77.8486 48.9099 77.7842 53.7436 78.0491C56.8014 78.2067 57.804 79.0159 58.162 81.1714C58.2909 81.9448 58.2551 83.0404 58.0618 84.1003C57.7395 85.9407 56.293 86.7141 53.5861 86.7785C49.3682 86.8716 47.1411 86.9074 43.2454 86.8716V87.5519C44.47 87.4517 52.5262 87.2941 55.7774 87.3872C57.7753 87.4517 58.9354 87.9673 58.9354 89.7432C58.9354 91.5192 57.7753 92.0635 55.7774 92.221C54.4239 92.3499 52.5549 92.4143 50.5283 92.443C50.5283 92.6721 50.5569 92.9299 50.5569 93.1519C53.5861 93.1806 56.3574 93.245 58.2909 93.3453C60.6111 93.4742 61.4132 94.6987 61.4132 95.9877L61.406 95.9949ZM58.828 102.798C58.9927 104.023 59.1216 105.827 58.828 107.052C58.5058 108.47 56.8945 109.143 54.9324 109.143C52.9702 109.143 51.1298 108.462 50.9651 107.08C50.9006 106.536 50.9006 106.114 50.9651 105.469C47.9359 105.727 40.56 105.698 37.4306 105.34C35.7549 105.147 34.3728 104.338 34.3728 102.476C34.3728 100.614 35.5973 100.027 37.3017 99.8619C41.4909 99.4752 52.3472 99.511 55.6055 99.8906C57.2812 100.084 58.5702 100.764 58.828 102.791V102.798Z" fill="#294753"/>
<path d="M77.2319 85.9407C77.2319 87.8098 76.1362 89.2921 74.1025 89.1274C72.1045 88.9699 67.7219 88.9699 65.3373 89.1561C63.3107 89.3208 62.1147 87.8384 62.1147 85.9335C62.1147 84.0287 63.1459 82.933 65.1797 82.7397L66.1465 82.6466C66.1751 82.131 66.2396 81.6154 66.3685 81.1284C66.7552 79.6819 67.593 78.7438 69.6554 78.7438C71.7178 78.7438 72.7848 79.6819 73.0713 81.1284C73.1644 81.644 73.2288 82.1238 73.2288 82.6108L74.1598 82.7039C76.1864 82.9259 77.2247 84.0573 77.2247 85.9264L77.2319 85.9407ZM76.7807 97.5417C76.7807 102.662 74.038 105.369 69.6912 105.369C65.3444 105.369 62.5659 102.662 62.5659 97.5417C62.5659 92.4215 65.3373 89.6144 69.6912 89.6144C74.0452 89.6144 76.7807 92.3499 76.7807 97.5417ZM71.016 97.5417C71.016 96.4747 70.6007 95.6369 69.6984 95.6369C68.7961 95.6369 68.3449 96.5392 68.3449 97.5417C68.3449 98.6016 68.7961 99.3463 69.6984 99.3463C70.6007 99.3463 71.016 98.6016 71.016 97.5417ZM92.4779 104.889C92.2488 107.302 90.9956 108.205 89.4488 108.205C87.902 108.205 86.4841 107.431 86.3265 105.011C86.1618 102.791 86.0974 99.4681 86.0687 95.9233C85.9756 95.952 85.8754 95.952 85.7465 95.952H84.8155C84.7511 99.0814 84.658 102.039 84.4933 104.295C84.2999 106.744 82.8534 107.61 81.3352 107.61C79.8171 107.61 78.435 106.837 78.2416 104.424C77.7905 98.5873 77.8263 87.4445 78.213 81.5438C78.3777 79.066 79.9818 78.4144 81.371 78.4144C82.7603 78.4144 84.3357 79.1233 84.5291 81.5438C84.658 83.0906 84.7582 85.511 84.7869 88.2466C85.2667 88.2179 85.7536 88.218 86.0401 88.218H86.1045C86.1332 85.289 86.2048 82.6752 86.2979 80.9351C86.4268 78.4573 87.9091 77.8057 89.3915 77.8057C90.8738 77.8057 92.4206 78.5146 92.614 80.9351C93.0938 86.9934 93.0007 99.332 92.4851 104.875L92.4779 104.889Z" fill="#294753"/>
<path d="M124.567 102.282C124.567 103.801 123.729 105.183 121.409 105.376C115.322 105.892 104.136 105.92 98.3717 105.441C96.0802 105.247 94.9272 104.058 94.9272 102.282C94.9272 100.506 96.0873 99.3535 98.3717 99.2246C100.499 99.0957 102.976 99.0313 105.554 98.9668C105.526 97.7136 105.526 96.2957 105.526 95.3576C103.757 95.2932 102.275 95.2001 101.594 95.0998C99.3385 94.7131 97.892 93.7464 97.3692 91.3975C96.7247 88.4973 96.918 83.9858 97.4981 81.5725C97.9779 79.5459 99.2382 78.7653 101.007 78.8011C102.683 78.8297 104.136 79.5745 104.323 81.5725V81.6011C107.388 81.4722 111.541 81.508 114.312 81.6298C114.699 79.7607 115.73 78.665 117.664 78.665C119.948 78.665 121.144 80.0829 121.366 82.4031C121.653 85.332 121.753 88.7479 121.237 92.8083C120.979 94.8349 119.755 96.0594 117.793 96.0594C116.862 96.0594 116.053 95.7658 115.408 95.286L113.439 95.3863C113.439 96.3172 113.439 97.6707 113.41 98.931C116.375 98.9597 119.175 99.0599 121.402 99.2246C123.722 99.3822 124.56 100.771 124.56 102.282H124.567ZM104.265 89.5858C105.397 89.4855 110.968 89.4569 114.062 89.55C114.033 88.841 114.033 88.1321 114.033 87.4231C111.226 87.5162 107.366 87.5162 104.43 87.4231C104.401 88.1321 104.33 88.841 104.265 89.5858V89.5858Z" fill="#294753"/>
<path d="M139.777 97.7995C140.909 99.1243 140.844 100.893 139.713 102.311C138.653 103.636 136.849 103.378 135.237 102.633C134.335 102.218 133.468 101.638 132.695 100.929C132.502 101.38 132.308 101.767 132.151 102.089C131.184 104.087 129.222 104.631 127.675 104.087C126.035 103.536 125.133 102.247 125.52 100.062C126.193 96.0665 130.611 84.53 132.316 81.3719C133.153 79.8538 134.994 79.1806 136.569 79.6962C138.152 80.2404 138.925 81.465 138.667 83.4343C138.41 85.3678 136.798 90.2302 135.187 94.6486C137.156 95.5509 138.667 96.5177 139.792 97.8067L139.777 97.7995ZM147.927 81.5581C148.22 86.7786 148.378 98.2149 147.898 104.467C147.705 106.916 146.258 107.782 144.74 107.782C143.222 107.782 141.747 107.009 141.618 104.588C141.424 101.172 141.324 97.8855 141.296 94.8277C140.938 94.8563 140.587 94.8563 140.329 94.8563C138.424 94.8563 137.464 93.0875 137.464 91.2185C137.464 89.3494 138.524 87.287 140.651 87.287H141.36C141.424 85.2246 141.489 83.2911 141.589 81.5509C141.718 79.0732 143.329 78.4215 144.711 78.4215C146.094 78.4215 147.805 79.1305 147.934 81.5509L147.927 81.5581ZM155.596 105.047C155.403 107.467 154.014 108.362 152.467 108.362C150.92 108.362 149.244 107.589 149.18 105.168C148.958 97.6277 149.087 86.8359 149.151 80.9351C149.18 78.4573 150.956 77.8057 152.438 77.8057C153.921 77.8057 155.532 78.5146 155.725 80.9351C156.205 86.9934 156.205 97.3985 155.596 105.039V105.047Z" fill="#294753"/>
<path d="M187.728 102.44C187.728 103.922 187.019 105.304 184.699 105.469C178.612 105.884 168.135 105.92 161.404 105.534C159.112 105.405 158.088 104.18 158.088 102.44C158.088 100.7 159.12 99.4108 161.404 99.3106L163.817 99.2175V98.6016C163.918 96.5392 165.078 95.4149 167.62 95.4149C170.162 95.4149 171.322 96.5392 171.422 98.6016V99.0886C172.454 99.0886 173.485 99.0528 174.516 99.0528V98.6016C174.616 96.5392 175.769 95.4149 178.319 95.4149C180.868 95.4149 182.021 96.5392 182.121 98.6016V99.1817L184.699 99.3106C187.019 99.4395 187.728 100.95 187.728 102.44ZM160.466 86.9433C160.466 81.7228 165.006 78.7939 172.941 78.7939C180.875 78.7939 185.379 81.7228 185.379 86.9433C185.379 92.1638 180.803 95.0282 172.941 95.0282C165.078 95.0282 160.466 92.128 160.466 86.9433ZM168.715 86.9433C168.715 88.2323 170.327 88.8124 172.969 88.8124C175.612 88.8124 177.123 88.2323 177.123 86.9433C177.123 85.5612 175.576 84.974 172.969 84.974C170.363 84.974 168.715 85.5541 168.715 86.9433Z" fill="#294753"/>
<path d="M190.307 102.089C190.307 99.7976 191.947 98.48 194.431 98.48C196.916 98.48 198.556 99.7976 198.556 102.089C198.556 104.381 196.916 105.698 194.431 105.698C191.947 105.698 190.307 104.374 190.307 102.089Z" fill="#294753"/>
<path d="M11.4005 140.1V145.256H10.5842V140.473C10.5842 139.255 9.954 138.611 8.86551 138.611C7.64811 138.611 6.8031 139.484 6.45937 140.244V145.256H5.643V140.473C5.643 139.255 4.9985 138.611 3.92433 138.611C2.70694 138.611 1.86192 139.484 1.51819 140.244V145.256H0.6875V137.952H1.47522V139.298C1.99082 138.511 2.89313 137.837 4.16781 137.837C5.18469 137.837 6.07267 138.382 6.35911 139.384C6.87471 138.568 7.80566 137.837 9.10898 137.837C10.3407 137.837 11.4005 138.639 11.4005 140.1V140.1Z" fill="#294753"/>
<path d="M13.1479 141.604C13.1479 139.227 14.5086 137.852 16.4994 137.852C18.4902 137.852 19.8508 139.227 19.8508 141.604C19.8508 143.982 18.4758 145.371 16.4994 145.371C14.5229 145.371 13.1479 143.996 13.1479 141.604V141.604ZM19.0058 141.604C19.0058 139.728 18.0605 138.611 16.4994 138.611C14.9382 138.611 13.993 139.728 13.993 141.604C13.993 143.48 14.9239 144.598 16.4994 144.598C18.0748 144.598 19.0058 143.495 19.0058 141.604Z" fill="#294753"/>
<path d="M21.1968 141.604C21.1968 139.227 22.5574 137.852 24.5482 137.852C26.539 137.852 27.8996 139.227 27.8996 141.604C27.8996 143.982 26.5247 145.371 24.5482 145.371C22.5717 145.371 21.1968 143.996 21.1968 141.604ZM27.0546 141.604C27.0546 139.728 26.1093 138.611 24.5482 138.611C22.9871 138.611 22.0418 139.728 22.0418 141.604C22.0418 143.48 22.9727 144.598 24.5482 144.598C26.1236 144.598 27.0546 143.495 27.0546 141.604Z" fill="#294753"/>
<path d="M35.6911 145.256H34.9034V143.752C34.5453 144.583 33.6717 145.371 32.2967 145.371C30.7213 145.371 29.2461 144.139 29.2461 141.604C29.2461 139.069 30.6354 137.852 32.2824 137.852C33.7433 137.852 34.574 138.725 34.8604 139.37V134.83H35.6911V145.256V145.256ZM34.8604 140.43C34.5453 139.327 33.6001 138.625 32.4972 138.625C31.1366 138.625 30.0911 139.556 30.0911 141.604C30.0911 143.652 31.1366 144.583 32.4972 144.583C33.6001 144.583 34.4021 143.967 34.8604 142.735V140.43V140.43Z" fill="#294753"/>
<path d="M47.6789 145.256H46.8912V143.752C46.5331 144.583 45.6595 145.371 44.2845 145.371C42.7091 145.371 41.2339 144.139 41.2339 141.604C41.2339 139.069 42.6231 137.852 44.2702 137.852C45.7311 137.852 46.5618 138.725 46.8482 139.37V134.83H47.6789V145.256V145.256ZM46.8482 140.43C46.5331 139.327 45.5878 138.625 44.485 138.625C43.1244 138.625 42.0789 139.556 42.0789 141.604C42.0789 143.652 43.1244 144.583 44.485 144.583C45.5878 144.583 46.3899 143.967 46.8482 142.735V140.43V140.43Z" fill="#294753"/>
<path d="M49.8271 135.675C49.8271 135.259 50.0563 135.059 50.4716 135.059C50.887 135.059 51.1305 135.259 51.1305 135.675C51.1305 136.09 50.9013 136.291 50.4716 136.291C50.042 136.291 49.8271 136.076 49.8271 135.675ZM50.0706 137.952H50.9013V145.256H50.0706V137.952Z" fill="#294753"/>
<path d="M55.0549 141.346L57.9051 140.945V140.186C57.9051 139.098 57.2749 138.539 56.0432 138.539C54.8114 138.539 54.1669 139.413 53.9807 140.186L53.193 139.957C53.4222 138.955 54.3961 137.837 56.0575 137.837C57.7189 137.837 58.7214 138.654 58.7214 140.029V145.256H57.9337V144.282C57.547 144.87 56.4585 145.371 55.3414 145.371C54.081 145.371 53.0068 144.812 53.0068 143.409C53.0068 142.005 53.9664 141.504 55.0549 141.346V141.346ZM55.5562 144.669C56.4872 144.669 57.5756 144.225 57.9051 143.409V141.604L55.3414 141.977C54.2958 142.134 53.8375 142.521 53.8375 143.366C53.8375 144.254 54.4247 144.669 55.5562 144.669Z" fill="#294753"/>
<path d="M65.4098 138.382L64.9515 139.026C64.7223 138.768 64.3786 138.611 63.9346 138.611C62.8891 138.611 62.1013 139.442 61.7433 140.501V145.256H60.9126V137.952H61.7003V139.399C62.2016 138.482 62.9893 137.852 64.0492 137.852C64.708 137.852 65.1663 138.11 65.4098 138.382V138.382Z" fill="#294753"/>
<path d="M71.4252 137.952H72.2702L69.0477 146.531C68.7469 147.347 68.1597 147.734 67.4723 147.734C66.9996 147.734 66.57 147.576 66.2262 147.333L66.4984 146.617C66.7705 146.817 67.0712 146.989 67.4579 146.989C67.8876 146.989 68.1884 146.746 68.3889 146.23L68.7899 145.256L66.04 137.952H66.928L69.1766 144.254L71.4252 137.952Z" fill="#294753"/>
<path d="M73.1221 141.275V140.559H85.4678V141.275H73.1221ZM74.9696 146.345V142.707H75.8147V145.629H83.8351V146.345H74.9696ZM75.0985 138.525V133.985H75.9436V137.809H83.7205V138.525H75.0985V138.525Z" fill="#294753"/>
<path d="M90.2515 137.852V137.136H98.1001V137.852H90.2515ZM97.255 141.704C97.255 143.409 96.1522 144.497 94.2044 144.497C92.2566 144.497 91.1681 143.409 91.1681 141.704C91.1681 140 92.2709 138.912 94.2044 138.912C96.1379 138.912 97.255 140.014 97.255 141.704ZM96.4244 141.704C96.4244 140.43 95.608 139.642 94.2044 139.642C92.8008 139.642 91.9988 140.43 91.9988 141.704C91.9988 142.979 92.8152 143.781 94.2044 143.781C95.5937 143.781 96.4244 142.993 96.4244 141.704ZM96.1093 134.801V135.531H92.2566V134.801H96.1093ZM102.769 139.499V140.215H100.478V146.789H99.6325V133.526H100.478V139.499H102.769Z" fill="#294753"/>
<path d="M115.838 141.59V142.306H110.095V146.66H109.25V142.306H103.493V141.59H115.838ZM114.306 139.27V139.957H105.398V136.677H113.089V134.815H105.398V134.114H113.948V137.365H106.243V139.27H114.306Z" fill="#294753"/>
<path d="M116.92 143.581C119.856 143.709 123.394 143.638 125.857 142.965L125.986 143.667C123.465 144.354 119.813 144.426 116.92 144.311V143.581ZM117.822 138.238C117.822 136.376 119.14 135.188 121.274 135.188C123.408 135.188 124.726 136.376 124.726 138.238C124.726 140.1 123.394 141.289 121.274 141.289C119.154 141.289 117.822 140.129 117.822 138.238ZM123.895 138.238C123.895 136.806 122.964 135.918 121.274 135.918C119.584 135.918 118.653 136.806 118.653 138.238C118.653 139.671 119.57 140.559 121.274 140.559C122.978 140.559 123.895 139.699 123.895 138.238ZM126.917 146.789V133.526H127.762V146.789H126.917Z" fill="#294753"/>
<path d="M134.364 143.709C138.561 142.449 140.093 140.201 140.208 136.362H134.851V135.646H141.067C141.067 140.687 139.033 143.079 134.722 144.44L134.364 143.709ZM143.96 146.789V133.526H144.805V146.789H143.96Z" fill="#294753"/>
<path d="M147.168 140.645H159.514V141.361H153.771V144.068H152.925V141.361H147.168V140.645ZM149.861 142.879V145.629H157.881V146.345H149.016V142.879H149.861ZM157.595 133.97V139.026H149.087V133.97H149.932V135.675H156.75V133.97H157.595ZM156.75 138.324V136.377H149.932V138.324H156.75Z" fill="#294753"/>
<path d="M160.488 140.029V139.312H172.834V140.029H160.488ZM162.221 135.932C162.221 134.429 163.725 133.669 166.646 133.669C169.568 133.669 171.101 134.429 171.101 135.932C171.101 137.436 169.568 138.181 166.646 138.181C163.725 138.181 162.221 137.436 162.221 135.932ZM162.292 146.545V143.652H170.098V142.206H162.292V141.504H170.943V144.34H163.137V145.843H171.43V146.545H162.292ZM170.256 135.932C170.256 134.915 168.995 134.371 166.646 134.371C164.298 134.371 163.066 134.915 163.066 135.932C163.066 136.949 164.298 137.479 166.646 137.479C168.995 137.479 170.256 136.949 170.256 135.932Z" fill="#294753"/>
<path d="M183.87 140.917C182.781 140.272 181.65 139.27 180.962 138.167C180.332 139.499 179.387 140.458 178.169 141.275L177.625 140.673C179.687 139.398 180.733 137.623 180.933 134.586L181.778 134.701C181.707 135.646 181.564 136.477 181.334 137.207C182.008 138.539 183.196 139.613 184.414 140.315L183.87 140.917V140.917ZM180.189 142.879V142.177H188.868V146.789H188.023V142.879H180.189ZM188.052 133.526H188.868V141.361H188.052V137.751H186.061V141.217H185.244V133.77H186.061V137.035H188.052V133.526Z" fill="#294753"/>
<path d="M194.575 143.595C196.294 143.538 197.955 143.366 199.316 143.022L199.43 143.738C197.024 144.34 193.501 144.411 190.708 144.297V143.566C191.668 143.609 192.699 143.638 193.73 143.609V139.327H194.575V143.595V143.595ZM196.695 141.346C197.053 140.115 197.296 137.68 197.253 136.233H191.367V135.503H198.098C198.113 137.551 197.869 140.244 197.497 141.475L196.695 141.346V141.346ZM203.455 139.699V140.372H201.221V146.789H200.376V133.526H201.221V139.699H203.455Z" fill="#294753"/>
<path d="M207.895 140.501H220.24V141.217H214.497V144.01H213.652V141.217H207.895V140.501ZM210.587 142.736V145.629H218.608V146.345H209.742V142.736H210.587ZM218.364 134.114V138.797H209.771V134.114H218.364ZM217.519 138.095V134.815H210.616V138.095H217.519Z" fill="#294753"/>
<path d="M229.042 143.495L228.483 144.111C227.151 143.208 225.819 141.79 225.046 140.129C224.358 142.091 223.184 143.337 221.666 144.397L221.093 143.781C223.685 142.12 224.716 139.885 224.831 136.248H221.479V135.531H228.755V136.248H225.69C225.662 137.222 225.561 138.067 225.404 138.84C226.034 140.831 227.538 142.506 229.042 143.495V143.495ZM233.825 139.499V140.215H231.534V146.789H230.689V133.526H231.534V139.499H233.825Z" fill="#294753"/>
<path d="M241.136 144.554H246.879V145.285H234.534V144.554H240.291V142.062H236.381V138.124H244.187V135.646H236.381V134.93H245.032V138.84H237.226V141.346H245.376V142.062H241.136V144.554Z" fill="#294753"/>
<path d="M252.093 143.709C256.29 142.449 257.822 140.201 257.937 136.362H252.58V135.646H258.796C258.796 140.687 256.762 143.079 252.451 144.44L252.093 143.709ZM261.689 146.789V133.526H262.534V146.789H261.689Z" fill="#294753"/>
<path d="M271.5 140.802H277.243V141.518H264.897V140.802H270.655V139.184H266.817V136.19H274.479V134.601H266.817V133.913H275.324V136.878H267.662V138.496H275.596V139.184H271.5V140.802V140.802ZM266.516 143.724V143.008H275.439V146.817H274.594V143.724H266.516Z" fill="#294753"/>
<path d="M278.303 137.852V137.136H286.151V137.852H278.303ZM285.306 141.704C285.306 143.409 284.203 144.497 282.256 144.497C280.308 144.497 279.219 143.409 279.219 141.704C279.219 140 280.322 138.912 282.256 138.912C284.189 138.912 285.306 140.014 285.306 141.704ZM284.476 141.704C284.476 140.43 283.659 139.642 282.256 139.642C280.852 139.642 280.05 140.43 280.05 141.704C280.05 142.979 280.866 143.781 282.256 143.781C283.645 143.781 284.476 142.993 284.476 141.704ZM284.161 134.801V135.531H280.308V134.801H284.161ZM290.82 139.499V140.215H288.529V146.789H287.684V133.526H288.529V139.499H290.82Z" fill="#294753"/>
<path d="M297.366 144.454H303.882V145.185H291.537V144.454H296.521V139.528H297.366V144.454ZM301.075 135.904H293.069V135.174H301.949V136.219C301.949 138.625 301.605 140.945 301.047 142.693L300.202 142.593C300.76 140.974 301.075 138.582 301.075 136.62V135.904V135.904Z" fill="#294753"/>
<path d="M7.92021 160.681L7.36164 161.297C6.04399 160.395 4.71202 158.977 3.93862 157.316C3.26547 159.278 2.09105 160.524 0.572887 161.584L0 160.968C2.59233 159.292 3.6092 157.072 3.7381 153.434H0.401021V152.718H7.64808V153.434H4.58312C4.55447 154.408 4.45422 155.268 4.29668 156.027C4.92686 158.032 6.43069 159.693 7.92021 160.681ZM10.1402 150.713H10.9852V163.976H10.1402V157.087H7.07519V156.356H10.1402V150.713Z" fill="#294753"/>
<path d="M14.0071 158.404L13.5059 157.788C15.9693 156.628 17.0291 155.024 17.1437 152.546H13.8926V151.845H20.9964V152.546H17.9887C17.9601 153.162 17.8742 153.721 17.7453 154.222C18.3898 155.597 19.8363 156.743 21.2685 157.445L20.7672 158.075C19.4782 157.416 18.1749 156.385 17.4015 155.196C16.7141 156.671 15.5253 157.631 14.0071 158.404V158.404ZM23.8465 161.412C23.8465 163.059 22.3284 163.89 19.5642 163.89C16.8 163.89 15.3105 163.059 15.3105 161.412C15.3105 159.765 16.8 158.934 19.5642 158.934C22.3284 158.934 23.8465 159.793 23.8465 161.412ZM23.0015 161.412C23.0015 160.237 21.8271 159.65 19.5642 159.65C17.3013 159.65 16.1412 160.237 16.1412 161.412C16.1412 162.586 17.3013 163.188 19.5642 163.188C21.8271 163.188 23.0015 162.601 23.0015 161.412ZM23.6603 154.308H25.7944V155.024H23.6603V158.734H22.8153V150.713H23.6603V154.308Z" fill="#294753"/>
<path d="M34.4593 153.248V153.95H26.8398V153.248H34.4593V153.248ZM30.6925 159.378C28.7877 159.378 27.7135 158.547 27.7135 157.115C27.7135 155.683 28.7877 154.838 30.6925 154.838C32.5974 154.838 33.6572 155.683 33.6572 157.115C33.6572 158.547 32.5831 159.378 30.6925 159.378ZM30.6925 158.691C32.0388 158.691 32.8265 158.118 32.8265 157.115C32.8265 156.113 32.0388 155.54 30.6925 155.54C29.3462 155.54 28.5442 156.113 28.5442 157.115C28.5442 158.118 29.3319 158.691 30.6925 158.691ZM32.5258 151.286V151.988H28.7877V151.286H32.5258ZM29.8905 160.08V162.787H37.5672V163.474H29.0455V160.08H29.8905V160.08ZM36.98 155.339H39.114V156.055H36.98V160.638H36.135V150.713H36.98V155.339V155.339Z" fill="#294753"/>
<path d="M43.7041 162.285V161.555H56.0499V162.285H43.7041ZM52.2545 160.18C52.8703 158.49 53.2141 155.998 53.2141 153.95V153.205H45.2223V152.46H54.0877V153.549C54.0877 156.041 53.7154 158.476 53.0995 160.294L52.2545 160.18V160.18Z" fill="#294753"/>
<path d="M68.8183 155.984C66.9851 156.728 64.3355 156.986 61.5283 156.671V151.501H62.3733V156.041C64.5933 156.227 66.8562 155.998 68.6465 155.296L68.8183 155.984V155.984ZM63.8915 161.34V163.116H71.5969V163.832H63.0465V160.638H70.2219V158.92H63.0035V158.218H71.0669V161.34H63.8915V161.34ZM71.0669 153.721H73.201V154.437H71.0669V157.402H70.2219V150.713H71.0669V153.721Z" fill="#294753"/>
<path d="M74.1821 160.767C77.1182 160.896 80.6558 160.825 83.1192 160.151L83.2481 160.853C80.7274 161.541 77.0752 161.612 74.1821 161.498V160.767ZM75.0844 155.425C75.0844 153.563 76.4021 152.374 78.5361 152.374C80.6701 152.374 81.9878 153.563 81.9878 155.425C81.9878 157.287 80.6558 158.476 78.5361 158.476C76.4164 158.476 75.0844 157.316 75.0844 155.425ZM81.1571 155.425C81.1571 153.993 80.2261 153.105 78.5361 153.105C76.8461 153.105 75.9151 153.993 75.9151 155.425C75.9151 156.857 76.8317 157.745 78.5361 157.745C80.2404 157.745 81.1571 156.886 81.1571 155.425ZM84.1791 163.976V150.713H85.0241V163.976H84.1791Z" fill="#294753"/>
<path d="M91.6338 160.896C95.8302 159.636 97.3627 157.387 97.4773 153.549H92.1208V152.833H98.3366C98.3366 157.874 96.3028 160.266 91.9918 161.627L91.6338 160.896ZM101.23 163.976V150.713H102.075V163.976H101.23Z" fill="#294753"/>
<path d="M104.431 157.831H116.776V158.548H111.033V161.254H110.188V158.548H104.431V157.831V157.831ZM107.123 160.066V162.816H115.144V163.532H106.278V160.066H107.123ZM114.857 151.157V156.213H106.35V151.157H107.195V152.862H114.012V151.157H114.857ZM114.012 155.511V153.563H107.195V155.511H114.012Z" fill="#294753"/>
<path d="M117.75 157.201V156.499H130.096V157.201H117.75ZM119.555 163.732V160.839H127.361V159.392H119.555V158.691H128.206V161.526H120.4V163.03H128.693V163.732H119.555ZM119.641 155.081V151.128H128.22V151.83H120.486V154.38H128.335V155.081H119.641V155.081Z" fill="#294753"/>
<path d="M131.07 157.215V156.499H143.416V157.215H131.07ZM132.803 153.119C132.803 151.615 134.307 150.856 137.228 150.856C140.15 150.856 141.683 151.615 141.683 153.119C141.683 154.623 140.15 155.368 137.228 155.368C134.307 155.368 132.803 154.623 132.803 153.119ZM132.874 163.732V160.839H140.68V159.392H132.874V158.69H141.525V161.526H133.719V163.03H142.012V163.732H132.874ZM140.838 153.119C140.838 152.102 139.577 151.558 137.228 151.558C134.88 151.558 133.648 152.102 133.648 153.119C133.648 154.136 134.88 154.666 137.228 154.666C139.577 154.666 140.838 154.136 140.838 153.119Z" fill="#294753"/>
<path d="M154.723 161.741H160.466V162.457H148.121V161.741H153.878V158.332H149.954V152.188H158.633V158.332H154.723V161.741ZM150.785 152.904V157.616H157.802V152.904H150.785Z" fill="#294753"/>
<path d="M168.573 156.972C168.573 159.922 167.341 161.584 165.207 161.584C163.073 161.584 161.841 159.894 161.841 156.958C161.841 154.022 163.073 152.332 165.207 152.332C167.341 152.332 168.573 154.022 168.573 156.972V156.972ZM167.742 156.972C167.742 154.423 166.797 153.076 165.207 153.076C163.617 153.076 162.672 154.423 162.672 156.972C162.672 159.521 163.617 160.853 165.207 160.853C166.797 160.853 167.742 159.507 167.742 156.972ZM174.044 156.585V157.301H171.752V163.976H170.907V150.713H171.752V156.585H174.044Z" fill="#294753"/>
<path d="M181.363 156.8H187.106V157.516H174.76V156.8H180.518V155.339H176.679V150.957H177.524V152.317H184.342V150.957H185.187V155.339H181.363V156.8ZM177.41 161.67V163.045H185.702V163.732H176.565V160.982H184.37V159.664H176.565V158.977H185.215V161.67H177.41V161.67ZM177.524 153.005V154.652H184.342V153.005H177.524Z" fill="#294753"/>
<path d="M204.149 158.218V158.948H198.406V163.847H197.561V158.948H191.804V158.218H204.149ZM193.164 156.786L192.792 156.098C195.8 155.353 197.647 153.549 197.905 151.128L198.736 151.286C198.664 151.873 198.507 152.432 198.277 152.933C199.137 154.394 201.371 155.611 203.233 156.027L202.832 156.728C201.056 156.284 198.779 155.067 197.833 153.735C196.845 155.21 195.169 156.241 193.164 156.786V156.786Z" fill="#294753"/>
<path d="M209.413 154.709C209.413 152.761 210.659 151.615 212.807 151.615C214.956 151.615 216.188 152.761 216.188 154.723C216.188 156.686 214.956 157.817 212.807 157.817C210.659 157.817 209.413 156.671 209.413 154.709ZM221.143 163.417L220.642 164.033C219.668 163.575 218.608 162.601 218.064 161.698C217.505 162.758 216.632 163.532 215.615 164.033C214.626 163.503 213.652 162.572 213.137 161.627C212.55 162.744 211.647 163.56 210.573 164.061L210.072 163.46C211.748 162.729 212.879 161.369 212.951 158.891L213.796 158.991C213.781 159.607 213.681 160.18 213.509 160.71C213.896 161.741 214.755 162.644 215.643 163.173C216.918 162.457 217.863 161.197 217.878 158.891L218.708 158.991C218.708 159.65 218.608 160.266 218.436 160.81C218.866 161.784 219.969 162.944 221.143 163.417V163.417ZM210.244 154.723C210.244 156.27 211.189 157.101 212.807 157.101C214.426 157.101 215.357 156.27 215.357 154.723C215.357 153.177 214.412 152.317 212.807 152.317C211.203 152.317 210.244 153.162 210.244 154.723ZM219.811 150.713V158.333H218.966V150.713H219.811Z" fill="#294753"/>
<path d="M222.16 158.461V157.745H234.505V158.461H222.16ZM224.007 163.531V159.894H224.852V162.815H232.873V163.531H224.007ZM224.136 155.712V151.171H224.981V154.995H232.758V155.712H224.136Z" fill="#294753"/>
<path d="M247.345 160.51L246.786 161.154C245.383 160.209 243.908 158.719 243.091 157.087C242.361 158.977 241.229 160.309 239.697 161.498L239.124 160.882C241.602 159.02 242.905 156.728 243.149 152.36L243.994 152.489C243.908 153.821 243.736 154.953 243.464 155.955C244.223 157.86 245.813 159.536 247.345 160.51ZM249.321 150.713H250.166V163.976H249.321V156.8H245.984V156.07H249.321V150.713Z" fill="#294753"/>
<path d="M253.411 161.24V152.489H254.256V155.984H258.71V152.489H259.555V161.24H253.411V161.24ZM254.256 160.51H258.71V156.7H254.256V160.51ZM262.634 163.976V150.713H263.479V163.976H262.634Z" fill="#294753"/>
<path d="M265.843 161.67H278.189V162.386H265.843V161.67ZM267.06 158.662L266.659 157.974C269.767 157.101 271.686 154.952 271.944 152.059L272.775 152.217C272.703 152.919 272.546 153.563 272.302 154.165C273.161 155.941 275.51 157.402 277.444 157.903L277.014 158.605C275.195 158.075 272.846 156.657 271.858 155.067C270.856 156.814 269.123 158.032 267.06 158.662V158.662Z" fill="#294753"/>
<path d="M279.721 154.623C279.721 152.704 280.952 151.587 283.101 151.587C285.249 151.587 286.495 152.718 286.495 154.623C286.495 156.528 285.263 157.659 283.101 157.659C280.938 157.659 279.721 156.528 279.721 154.623ZM285.664 154.623C285.664 153.119 284.719 152.289 283.101 152.289C281.482 152.289 280.551 153.119 280.551 154.623C280.551 156.127 281.497 156.943 283.101 156.943C284.705 156.943 285.664 156.141 285.664 154.623ZM281.855 163.746V158.562H282.7V160.409H289.274V158.562H290.119V163.746H281.855ZM282.7 163.059H289.274V161.097H282.7V163.059ZM289.288 157.76V150.713H290.133V157.76H289.288Z" fill="#294753"/>
<path d="M293.441 152.618H294.301V160.237C296.635 160.452 298.998 160.209 300.875 159.464L301.047 160.151C299.156 160.939 296.392 161.211 293.441 160.896V152.618ZM302.579 163.976V150.713H303.381V163.976H302.579Z" fill="#294753"/>
<path d="M307.334 160.366C309.626 160.567 311.917 160.323 313.751 159.693L313.923 160.395C312.075 161.054 309.382 161.326 306.489 161.025V152.761H312.705V153.492H307.334V160.366ZM318.405 156.585V157.301H316.114V163.976H315.269V150.713H316.114V156.585H318.405Z" fill="#294753"/>
<path d="M319.551 162.07C319.551 161.641 319.809 161.369 320.238 161.369C320.668 161.369 320.954 161.641 320.954 162.07C320.954 162.5 320.682 162.815 320.238 162.815C319.794 162.815 319.551 162.514 319.551 162.07Z" fill="#294753"/>
</svg>
