<svg width="200" height="35" viewBox="0 0 200 35" fill="none" xmlns="http://www.w3.org/2000/svg">
<path d="M29.2474 23.8273C28.9672 26.0442 27.7002 27.4581 25.4466 27.4581C23.1929 27.4581 21.8968 26.1955 21.7683 23.9786C21.6457 21.5173 21.6165 19.2073 21.6165 16.4376C21.6165 15.3321 21.4005 13.668 20.0401 13.668C19.5147 13.668 19.0184 14.0054 18.6506 14.5931C18.7148 17.549 18.6797 20.563 18.3411 23.8273C18.1251 26.0442 16.9807 27.4581 14.7271 27.4581C12.4734 27.4581 11.3291 26.1955 11.1773 23.9786C10.9904 21.4242 10.9321 18.8989 10.9321 16.4376C10.9321 15.3321 10.716 13.668 9.35565 13.668C8.83019 13.668 8.36895 14.0054 7.99528 14.5582C8.05951 17.6363 7.87267 20.9936 7.62746 23.8215C7.44063 26.0384 6.17367 27.4523 3.92001 27.4523C1.66634 27.4523 0.551189 26.0384 0.305971 23.8215C-0.126078 19.8182 -0.0968855 14.8026 0.370195 10.8925C0.650443 8.48938 2.37864 7.62822 4.07765 7.62822C5.62485 7.62822 7.16622 8.33809 7.62746 10.2757C8.49156 8.86177 10.0388 7.62822 12.9989 7.62822C15.5328 7.62822 17.2318 8.94905 18.0317 10.7703C18.8374 9.14106 20.3788 7.62822 23.6833 7.62822C27.2974 7.62822 29.4576 10.3397 29.5802 13.3537C29.6737 15.4775 29.7028 20.0975 29.2416 23.8215L29.2474 23.8273Z" fill="#294753"/>
<path d="M31.8164 17.5432C31.8164 11.5093 36.0785 7.63405 41.9754 7.63405C47.8723 7.63405 52.1344 11.5151 52.1344 17.5432C52.1344 23.5713 47.8723 27.4523 41.9754 27.4523C36.0785 27.4523 31.8164 23.5713 31.8164 17.5432ZM45.099 17.5432C45.099 15.6347 43.8612 14.1567 41.9812 14.1567C40.1012 14.1567 38.8635 15.6347 38.8635 17.5432C38.8635 19.4517 40.0662 20.9296 41.9812 20.9296C43.8963 20.9296 45.099 19.4517 45.099 17.5432Z" fill="#294753"/>
<path d="M53.9971 17.5432C53.9971 11.5093 58.2592 7.63405 64.1619 7.63405C70.0646 7.63405 74.3209 11.5151 74.3209 17.5432C74.3209 23.5713 70.0588 27.4523 64.1619 27.4523C58.265 27.4523 53.9971 23.5713 53.9971 17.5432ZM67.2797 17.5432C67.2797 15.6347 66.0419 14.1567 64.1619 14.1567C62.2819 14.1567 61.0441 15.6347 61.0441 17.5432C61.0441 19.4517 62.2469 20.9296 64.1619 20.9296C66.0769 20.9296 67.2797 19.4517 67.2797 17.5432Z" fill="#294753"/>
<path d="M95.631 23.8564C95.3508 26.0733 94.3641 27.4581 92.1104 27.4581C90.1312 27.4581 89.0219 26.3817 88.5898 24.5954C87.7841 26.2595 86.3361 27.4581 83.738 27.4581C79.1022 27.4581 76.0137 23.612 76.0137 17.5781C76.0137 11.5442 79.1022 7.63406 83.738 7.63406C85.6238 7.63406 87.1068 8.34393 88.1578 9.0829C88.222 6.98819 88.3446 5.11459 88.5256 3.78795C88.835 1.38485 90.4114 0.523697 92.1104 0.523697C93.8094 0.523697 95.4442 1.38485 95.7537 3.78795C96.3375 8.31484 96.2499 18.9338 95.631 23.8564ZM88.1286 19.4575L88.0352 15.2099C87.5389 14.6862 86.9258 14.2557 86.0267 14.2557C84.4211 14.2557 83.2768 15.6114 83.2768 17.5781C83.2768 19.5448 84.4211 20.7202 86.0267 20.7202C86.9842 20.7202 87.6323 20.2256 88.1286 19.4575Z" fill="#294753"/>
<path d="M127.2 23.8564C126.92 26.0733 125.933 27.4581 123.679 27.4581C121.7 27.4581 120.591 26.3817 120.159 24.5954C119.353 26.2595 117.905 27.4581 115.307 27.4581C110.671 27.4581 107.583 23.612 107.583 17.5781C107.583 11.5442 110.671 7.63406 115.307 7.63406C117.193 7.63406 118.676 8.34393 119.727 9.0829C119.791 6.98819 119.913 5.11459 120.094 3.78795C120.404 1.38485 121.98 0.523697 123.679 0.523697C125.378 0.523697 127.013 1.38485 127.323 3.78795C127.906 8.31484 127.819 18.9338 127.2 23.8564ZM119.697 19.4575L119.604 15.2099C119.108 14.6862 118.495 14.2557 117.596 14.2557C115.99 14.2557 114.846 15.6114 114.846 17.5781C114.846 19.5448 115.99 20.7202 117.596 20.7202C118.553 20.7202 119.201 20.2256 119.697 19.4575Z" fill="#294753"/>
<path d="M134.276 7.63404C135.975 7.63404 137.768 8.4952 138.042 10.8983C138.503 14.8084 138.352 19.8241 137.92 23.8273C137.674 26.0442 136.437 27.4581 134.183 27.4581C131.929 27.4581 130.756 26.0442 130.511 23.8273C130.079 19.8241 130.108 14.8084 130.575 10.8983C130.855 8.4952 132.583 7.63404 134.282 7.63404H134.276ZM130.727 3.07805C130.727 1.23355 132.052 0 134.247 0C136.442 0 137.768 1.23355 137.768 3.07805C137.768 4.92256 136.442 6.15611 134.247 6.15611C132.052 6.15611 130.727 4.92256 130.727 3.07805Z" fill="#294753"/>
<path d="M159.417 24.1357C159.265 26.3526 157.869 27.4581 155.616 27.4581C154.039 27.4581 152.837 26.9053 152.247 25.8289C151.289 26.7831 149.806 27.4581 147.611 27.4581C143.407 27.4581 140.477 25.4274 140.477 21.8257C140.477 18.2239 143.104 16.1642 147.611 16.1642C149.339 16.1642 150.606 16.4725 151.535 17.0544C151.383 15.5765 150.513 14.4069 148.633 14.4069C146.753 14.4069 145.79 14.6862 144.342 15.1168C141.498 15.9489 139.834 11.2707 142.362 9.57746C144.032 8.47193 146.963 7.63986 150.209 7.63986C155.213 7.63986 159.475 10.6888 159.568 15.7976C159.633 19.6786 159.568 21.9246 159.417 24.1415V24.1357ZM151.634 20.563C150.244 19.5448 148.113 19.731 148.113 21.5464C148.113 22.2853 148.575 23.0243 149.871 23.0243C150.986 23.0243 151.634 22.4715 151.634 21.4242V20.563Z" fill="#294753"/>
<path d="M177.831 11.8525C177.277 14.0054 175.852 15.3321 174.153 14.6513C173.382 14.3429 172.793 14.1567 171.993 14.1567C171.129 14.1567 170.632 14.5233 170.2 15.4775C170.23 18.3112 170.078 21.2671 169.798 23.8215C169.552 26.0384 168.315 27.4523 166.061 27.4523C163.807 27.4523 162.634 26.0384 162.388 23.8215C161.956 19.8182 161.986 14.8026 162.453 10.8925C162.733 8.48938 164.461 7.62822 166.16 7.62822C167.859 7.62822 169.652 8.48938 169.926 10.8925C169.926 10.9565 169.926 11.0147 169.955 11.0787C170.51 9.66474 172.057 7.63404 175.023 7.63404C177.493 7.63404 178.514 9.23416 177.831 11.8525Z" fill="#294753"/>
<path d="M199.761 12.254C198.523 16.6878 192.778 28.4124 190.063 32.1712C188.703 34.0506 186.788 35.1911 184.721 34.1728C182.958 33.3116 182.806 31.7406 183.518 29.4946C183.828 28.5404 184.692 26.4806 185.62 24.479C183.769 22.7857 180.062 15.7394 179.198 12.4111C178.579 10.072 179.384 8.6232 180.961 7.97734C182.537 7.33147 184.388 7.42457 185.655 9.48436C186.922 11.5442 188.434 14.8724 189.485 17.7003C190.227 15.7627 192.387 11.1136 193.409 9.60655C194.705 7.66895 196.281 7.29656 197.887 7.88424C199.65 8.53011 200.421 9.91494 199.773 12.254H199.761Z" fill="#294753"/>
</svg>
