<svg width="114" height="28" viewBox="0 0 114 28" fill="none" xmlns="http://www.w3.org/2000/svg">
<path d="M27.6263 22.8524C27.6263 24.2658 26.9679 25.5827 24.8052 25.736C19.129 26.1276 9.21824 26.2185 3.09356 25.7984C0.95929 25.6508 0 24.5099 0 22.8581C0 21.2063 0.95929 19.9462 3.09356 19.8554C5.13702 19.7645 7.56645 19.7078 10.0924 19.6737C10.064 18.3852 10.064 16.9094 10.064 16.0409C8.71305 15.9785 7.45293 15.8933 6.36876 15.7685C3.93365 15.496 2.49756 14.7751 1.89587 12.2549C1.50421 10.6031 1.59503 6.78862 1.92425 5.08007C2.31591 3.03662 3.21844 1.98651 5.82952 1.56647C9.52476 1.02722 16.938 0.993164 20.6616 1.50403C24.1127 1.95245 24.9869 3.1842 25.1969 5.43767C25.3445 6.99864 25.1969 9.5189 24.1752 10.7223C24.9244 11.1707 25.4069 11.954 25.4069 12.7941C25.4069 14.6843 23.8743 15.4392 20.7808 15.7968C19.8215 15.916 18.7089 15.9785 17.5056 16.0352C17.5056 16.9037 17.5056 18.3455 17.4772 19.6681C20.2075 19.6681 22.7618 19.7305 24.8052 19.8497C26.9679 19.9689 27.6263 21.439 27.6263 22.8524ZM9.33744 10.4782C12.1585 10.3306 15.0705 10.3306 17.568 10.4782V6.66374C15.0478 6.87377 12.1302 6.87377 9.33744 6.66374V10.4782Z" fill="#294753"/>
<path d="M45.223 13.4243C45.223 21.5017 42.3395 25.1969 36.9924 25.1969C31.6454 25.1969 28.7959 21.5017 28.7959 13.4243C28.7959 5.34704 31.6794 1.68017 36.9924 1.68017C42.3054 1.68017 45.223 5.37542 45.223 13.4243ZM38.5874 13.4243C38.5874 9.51908 38.0198 8.13975 36.9981 8.13975C35.9764 8.13975 35.4371 9.51908 35.4371 13.4243C35.4371 17.3296 36.0104 18.7089 36.9981 18.7089C37.9858 18.7089 38.5874 17.358 38.5874 13.4243ZM57.3532 13.2143C57.3532 15.6494 56.3939 16.9096 54.4412 16.9096H53.7487C53.7204 19.7647 53.6295 22.3758 53.5103 24.0844C53.3287 26.5479 52.0969 27.7172 50.0592 27.6547C48.0498 27.5923 47.1756 26.3322 46.8748 24.1695C46.2163 19.3674 46.2163 7.6516 46.8464 3.24114C47.1756 0.896849 48.589 0 50.2408 0C51.8926 0 53.3627 0.868468 53.5444 3.24114C53.6636 4.74535 53.726 7.08397 53.7544 9.72911C54.0552 9.70072 54.3845 9.66667 54.7137 9.66667C56.4847 9.66667 57.3588 10.87 57.3588 13.2087L57.3532 13.2143Z" fill="#294753"/>
<path d="M85.8876 22.7901C85.8876 24.2034 85.1043 25.492 82.9473 25.6736C77.271 26.1561 66.8494 26.1845 61.474 25.736C59.3397 25.5544 58.2612 24.4475 58.2612 22.7957C58.2612 21.1439 59.3454 20.0655 61.474 19.9406C63.455 19.8214 65.7652 19.7589 68.172 19.7022C68.1436 18.5329 68.1436 17.2103 68.1436 16.3361C66.4918 16.2737 65.1125 16.1886 64.4824 16.0977C62.3822 15.7401 61.0312 14.8376 60.5488 12.6466C59.9471 9.94468 60.1287 5.73858 60.668 3.49078C61.1164 1.60058 62.2914 0.879699 63.9432 0.908081C65.5041 0.936462 66.8551 1.62897 67.0367 3.49078V3.51916C69.8919 3.39996 73.7631 3.42834 76.3458 3.54754C76.7034 1.80493 77.6684 0.783203 79.4677 0.783203C81.602 0.783203 82.7089 2.10577 82.9189 4.26843C83.1914 6.9987 83.2765 10.1831 82.7997 13.9691C82.5613 15.8593 81.4204 17.0003 79.5869 17.0003C78.7185 17.0003 77.9635 16.7278 77.3675 16.2794L75.5341 16.3702C75.5341 17.2387 75.5341 18.5045 75.5057 19.6738C78.27 19.7022 80.8811 19.793 82.953 19.9462C85.1156 20.0938 85.8933 21.388 85.8933 22.8014L85.8876 22.7901ZM66.9686 10.9607C68.0187 10.8699 73.2125 10.8415 76.096 10.9324C76.0676 10.2739 76.0677 9.60978 76.0677 8.95134C73.4566 9.04216 69.8521 9.04216 67.1219 8.95134C67.0935 9.60978 67.0311 10.2739 66.9743 10.9607H66.9686Z" fill="#294753"/>
<path d="M103.575 11.1993C101.86 15.4905 97.9892 21.4392 93.9648 24.442C92.4606 25.5829 90.542 25.6453 89.2194 24.4136C87.7776 23.091 87.9593 21.32 89.3102 19.8499C92.3754 16.5747 95.7074 12.4026 97.3875 8.53141C95.5882 8.71306 93.4255 8.74144 91.2912 8.59385C89.4578 8.47465 88.2601 7.30534 88.1977 5.52867C88.1352 3.7293 89.3102 2.40673 91.5296 2.16833C94.2315 1.86749 97.3535 1.86749 100.566 2.25915C102.729 2.53161 104.051 3.75768 104.381 5.61949C104.682 7.2429 104.528 8.76982 103.569 11.2049L103.575 11.1993ZM106.515 24.1695C105.857 19.3674 105.857 7.6516 106.487 3.24114C106.816 0.896849 108.258 0 109.909 0C111.561 0 113.151 0.959288 113.332 3.33196C113.661 7.74809 113.633 19.2766 113.304 23.9935C113.122 26.457 111.771 27.7172 109.733 27.6547C107.724 27.5923 106.821 26.3322 106.521 24.1695H106.515Z" fill="#294753"/>
</svg>
